<svg xmlns="http://www.w3.org/2000/svg" version="1.1" xmlns:xlink="http://www.w3.org/1999/xlink" xmlns:svgjs="http://svgjs.dev/svgjs" viewBox="0 0 800 800"><defs><linearGradient x1="50%" y1="0%" x2="50%" y2="100%" id="ffflurry-grad" gradientTransform="rotate(270)"><stop stop-color="#FFE69D" stop-opacity="1" offset="0%"></stop><stop stop-color="393F5F" stop-opacity="1" offset="45%"></stop><stop stop-color="#E96D5E" stop-opacity="1" offset="100%"></stop></linearGradient></defs><rect width="100%" height="100%" fill="#ffe69d"></rect><g fill="url(#ffflurry-grad)"><rect width="45" height="3" x="537.5" y="134.5" rx="1.5" transform="rotate(0, 560, 136)" opacity="0.93"></rect><rect width="379" height="3" x="-145.5" y="341.5" rx="1.5" transform="rotate(0, 44, 343)" opacity="0.73"></rect><rect width="526" height="3" x="493" y="202.5" rx="1.5" transform="rotate(0, 756, 204)" opacity="0.32"></rect><rect width="318" height="3" x="342" y="477.5" rx="1.5" transform="rotate(0, 501, 479)" opacity="0.24"></rect><rect width="247" height="3" x="346.5" y="538.5" rx="1.5" transform="rotate(0, 470, 540)" opacity="0.32"></rect><rect width="167" height="3" x="-50.5" y="550.5" rx="1.5" transform="rotate(0, 33, 552)" opacity="0.23"></rect><rect width="374" height="3" x="122" y="540.5" rx="1.5" transform="rotate(0, 309, 542)" opacity="0.16"></rect><rect width="251" height="3" x="-32.5" y="438.5" rx="1.5" transform="rotate(0, 93, 440)" opacity="0.09"></rect><rect width="188" height="3" x="450" y="624.5" rx="1.5" transform="rotate(0, 544, 626)" opacity="0.81"></rect><rect width="80" height="3" x="29" y="92.5" rx="1.5" transform="rotate(0, 69, 94)" opacity="0.72"></rect><rect width="264" height="3" x="-8" y="196.5" rx="1.5" transform="rotate(0, 124, 198)" opacity="0.47"></rect><rect width="418" height="3" x="-20" y="231.5" rx="1.5" transform="rotate(0, 189, 233)" opacity="0.35"></rect><rect width="307" height="3" x="125.5" y="108.5" rx="1.5" transform="rotate(0, 279, 110)" opacity="0.09"></rect><rect width="146" height="3" x="673" y="634.5" rx="1.5" transform="rotate(0, 746, 636)" opacity="0.99"></rect><rect width="42" height="3" x="278" y="28.5" rx="1.5" transform="rotate(0, 299, 30)" opacity="0.10"></rect><rect width="552" height="3" x="389" y="408.5" rx="1.5" transform="rotate(0, 665, 410)" opacity="0.16"></rect><rect width="395" height="3" x="541.5" y="753.5" rx="1.5" transform="rotate(0, 739, 755)" opacity="0.96"></rect><rect width="402" height="3" x="-168" y="648.5" rx="1.5" transform="rotate(0, 33, 650)" opacity="0.97"></rect><rect width="207" height="3" x="483.5" y="320.5" rx="1.5" transform="rotate(0, 587, 322)" opacity="0.42"></rect><rect width="361" height="3" x="7.5" y="25.5" rx="1.5" transform="rotate(0, 188, 27)" opacity="0.78"></rect><rect width="373" height="3" x="189.5" y="740.5" rx="1.5" transform="rotate(0, 376, 742)" opacity="0.94"></rect><rect width="318" height="3" x="300" y="416.5" rx="1.5" transform="rotate(0, 459, 418)" opacity="0.66"></rect><rect width="476" height="3" x="20" y="748.5" rx="1.5" transform="rotate(0, 258, 750)" opacity="0.15"></rect><rect width="345" height="3" x="347.5" y="723.5" rx="1.5" transform="rotate(0, 520, 725)" opacity="0.15"></rect><rect width="563" height="3" x="220.5" y="255.5" rx="1.5" transform="rotate(0, 502, 257)" opacity="0.09"></rect><rect width="47" height="3" x="415.5" y="304.5" rx="1.5" transform="rotate(0, 439, 306)" opacity="0.70"></rect><rect width="273" height="3" x="525.5" y="281.5" rx="1.5" transform="rotate(0, 662, 283)" opacity="0.44"></rect><rect width="42" height="3" x="595" y="107.5" rx="1.5" transform="rotate(0, 616, 109)" opacity="0.68"></rect><rect width="136" height="3" x="428" y="140.5" rx="1.5" transform="rotate(0, 496, 142)" opacity="0.32"></rect><rect width="383" height="3" x="153.5" y="240.5" rx="1.5" transform="rotate(0, 345, 242)" opacity="0.48"></rect><rect width="330" height="3" x="233" y="372.5" rx="1.5" transform="rotate(0, 398, 374)" opacity="0.94"></rect><rect width="181" height="3" x="-31.5" y="30.5" rx="1.5" transform="rotate(0, 59, 32)" opacity="0.83"></rect><rect width="247" height="3" x="-58.5" y="163.5" rx="1.5" transform="rotate(0, 65, 165)" opacity="0.51"></rect><rect width="571" height="3" x="-173.5" y="289.5" rx="1.5" transform="rotate(0, 112, 291)" opacity="0.31"></rect><rect width="405" height="3" x="379.5" y="222.5" rx="1.5" transform="rotate(0, 582, 224)" opacity="0.79"></rect><rect width="286" height="3" x="588" y="516.5" rx="1.5" transform="rotate(0, 731, 518)" opacity="0.71"></rect><rect width="209" height="3" x="62.5" y="372.5" rx="1.5" transform="rotate(0, 167, 374)" opacity="0.79"></rect><rect width="462" height="3" x="-7" y="600.5" rx="1.5" transform="rotate(0, 224, 602)" opacity="1.00"></rect><rect width="70" height="3" x="249" y="425.5" rx="1.5" transform="rotate(0, 284, 427)" opacity="0.46"></rect><rect width="327" height="3" x="13.5" y="523.5" rx="1.5" transform="rotate(0, 177, 525)" opacity="0.66"></rect><rect width="609" height="3" x="376.5" y="44.5" rx="1.5" transform="rotate(0, 681, 46)" opacity="0.21"></rect><rect width="210" height="3" x="160" y="195.5" rx="1.5" transform="rotate(0, 265, 197)" opacity="0.96"></rect><rect width="461" height="3" x="229.5" y="44.5" rx="1.5" transform="rotate(0, 460, 46)" opacity="0.89"></rect><rect width="174" height="3" x="-45" y="771.5" rx="1.5" transform="rotate(0, 42, 773)" opacity="0.25"></rect><rect width="311" height="3" x="230.5" y="477.5" rx="1.5" transform="rotate(0, 386, 479)" opacity="0.83"></rect><rect width="335" height="3" x="258.5" y="190.5" rx="1.5" transform="rotate(0, 426, 192)" opacity="0.56"></rect><rect width="493" height="3" x="146.5" y="583.5" rx="1.5" transform="rotate(0, 393, 585)" opacity="0.42"></rect><rect width="461" height="3" x="-66.5" y="135.5" rx="1.5" transform="rotate(0, 164, 137)" opacity="0.50"></rect><rect width="193" height="3" x="-35.5" y="715.5" rx="1.5" transform="rotate(0, 61, 717)" opacity="0.12"></rect><rect width="73" height="3" x="68.5" y="546.5" rx="1.5" transform="rotate(0, 105, 548)" opacity="0.30"></rect><rect width="155" height="3" x="677.5" y="388.5" rx="1.5" transform="rotate(0, 755, 390)" opacity="0.98"></rect><rect width="161" height="3" x="89.5" y="75.5" rx="1.5" transform="rotate(0, 170, 77)" opacity="0.45"></rect><rect width="184" height="3" x="568" y="678.5" rx="1.5" transform="rotate(0, 660, 680)" opacity="0.94"></rect><rect width="37" height="3" x="125.5" y="760.5" rx="1.5" transform="rotate(0, 144, 762)" opacity="0.33"></rect><rect width="586" height="3" x="159" y="647.5" rx="1.5" transform="rotate(0, 452, 649)" opacity="0.34"></rect><rect width="208" height="3" x="458" y="386.5" rx="1.5" transform="rotate(0, 562, 388)" opacity="0.62"></rect><rect width="162" height="3" x="236" y="652.5" rx="1.5" transform="rotate(0, 317, 654)" opacity="0.29"></rect><rect width="312" height="3" x="-139" y="132.5" rx="1.5" transform="rotate(0, 17, 134)" opacity="0.27"></rect><rect width="205" height="3" x="657.5" y="77.5" rx="1.5" transform="rotate(0, 760, 79)" opacity="0.63"></rect><rect width="350" height="3" x="329" y="357.5" rx="1.5" transform="rotate(0, 504, 359)" opacity="0.45"></rect><rect width="83" height="3" x="530.5" y="35.5" rx="1.5" transform="rotate(0, 572, 37)" opacity="0.14"></rect><rect width="287" height="3" x="96.5" y="471.5" rx="1.5" transform="rotate(0, 240, 473)" opacity="0.76"></rect><rect width="504" height="3" x="-139" y="630.5" rx="1.5" transform="rotate(0, 113, 632)" opacity="0.74"></rect><rect width="162" height="3" x="528" y="556.5" rx="1.5" transform="rotate(0, 609, 558)" opacity="0.30"></rect><rect width="66" height="3" x="568" y="740.5" rx="1.5" transform="rotate(0, 601, 742)" opacity="0.58"></rect><rect width="186" height="3" x="220" y="324.5" rx="1.5" transform="rotate(0, 313, 326)" opacity="0.53"></rect><rect width="441" height="3" x="454.5" y="167.5" rx="1.5" transform="rotate(0, 675, 169)" opacity="0.40"></rect><rect width="360" height="3" x="294" y="766.5" rx="1.5" transform="rotate(0, 474, 768)" opacity="0.14"></rect><rect width="312" height="3" x="220" y="94.5" rx="1.5" transform="rotate(0, 376, 96)" opacity="0.20"></rect><rect width="174" height="3" x="499" y="460.5" rx="1.5" transform="rotate(0, 586, 462)" opacity="0.32"></rect><rect width="194" height="3" x="238" y="399.5" rx="1.5" transform="rotate(0, 335, 401)" opacity="0.30"></rect><rect width="308" height="3" x="-114" y="237.5" rx="1.5" transform="rotate(0, 40, 239)" opacity="0.40"></rect><rect width="206" height="3" x="-73" y="447.5" rx="1.5" transform="rotate(0, 30, 449)" opacity="0.93"></rect><rect width="312" height="3" x="24" y="684.5" rx="1.5" transform="rotate(0, 180, 686)" opacity="0.66"></rect><rect width="458" height="3" x="521" y="291.5" rx="1.5" transform="rotate(0, 750, 293)" opacity="0.25"></rect><rect width="437" height="3" x="-53.5" y="444.5" rx="1.5" transform="rotate(0, 165, 446)" opacity="0.65"></rect><rect width="136" height="3" x="150" y="311.5" rx="1.5" transform="rotate(0, 218, 313)" opacity="0.82"></rect></g></svg>