<svg xmlns="http://www.w3.org/2000/svg" version="1.1" xmlns:xlink="http://www.w3.org/1999/xlink" xmlns:svgjs="http://svgjs.dev/svgjs" viewBox="0 0 800 800"><defs><linearGradient x1="50%" y1="0%" x2="50%" y2="100%" id="ffflurry-grad" gradientTransform="rotate(270)"><stop stop-color="#150A18" stop-opacity="1" offset="0%"></stop><stop stop-color="#89548C" stop-opacity="1" offset="45%"></stop><stop stop-color="#6382BB" stop-opacity="1" offset="100%"></stop></linearGradient></defs><rect width="100%" height="100%" fill="#150a18"></rect><g fill="url(#ffflurry-grad)"><rect width="214" height="6" x="585" y="643" rx="3" transform="rotate(360, 692, 646)" opacity="0.85"></rect><rect width="100" height="6" x="38" y="478" rx="3" transform="rotate(360, 88, 481)" opacity="0.96"></rect><rect width="84" height="6" x="711" y="332" rx="3" transform="rotate(360, 753, 335)" opacity="0.15"></rect><rect width="39" height="6" x="203.5" y="538" rx="3" transform="rotate(360, 223, 541)" opacity="0.94"></rect><rect width="127" height="6" x="388.5" y="600" rx="3" transform="rotate(360, 452, 603)" opacity="0.31"></rect><rect width="74" height="6" x="38" y="144" rx="3" transform="rotate(360, 75, 147)" opacity="0.84"></rect><rect width="117" height="6" x="548.5" y="20" rx="3" transform="rotate(360, 607, 23)" opacity="0.52"></rect><rect width="51" height="6" x="20.5" y="25" rx="3" transform="rotate(360, 46, 28)" opacity="0.41"></rect><rect width="45" height="6" x="216.5" y="294" rx="3" transform="rotate(360, 239, 297)" opacity="0.92"></rect><rect width="183" height="6" x="226.5" y="117" rx="3" transform="rotate(360, 318, 120)" opacity="0.48"></rect><rect width="155" height="6" x="138.5" y="420" rx="3" transform="rotate(360, 216, 423)" opacity="0.65"></rect><rect width="64" height="6" x="-4" y="496" rx="3" transform="rotate(360, 28, 499)" opacity="0.12"></rect><rect width="210" height="6" x="337" y="30" rx="3" transform="rotate(360, 442, 33)" opacity="0.23"></rect><rect width="120" height="6" x="363" y="769" rx="3" transform="rotate(360, 423, 772)" opacity="0.89"></rect><rect width="191" height="6" x="553.5" y="689" rx="3" transform="rotate(360, 649, 692)" opacity="0.96"></rect><rect width="163" height="6" x="-0.5" y="204" rx="3" transform="rotate(360, 81, 207)" opacity="0.65"></rect><rect width="46" height="6" x="250" y="532" rx="3" transform="rotate(360, 273, 535)" opacity="0.55"></rect><rect width="34" height="6" x="596" y="432" rx="3" transform="rotate(360, 613, 435)" opacity="0.79"></rect><rect width="223" height="6" x="608.5" y="556" rx="3" transform="rotate(360, 720, 559)" opacity="0.94"></rect><rect width="121" height="6" x="99.5" y="610" rx="3" transform="rotate(360, 160, 613)" opacity="0.32"></rect><rect width="79" height="6" x="216.5" y="242" rx="3" transform="rotate(360, 256, 245)" opacity="0.29"></rect><rect width="168" height="6" x="650" y="231" rx="3" transform="rotate(360, 734, 234)" opacity="0.79"></rect><rect width="39" height="6" x="617.5" y="752" rx="3" transform="rotate(360, 637, 755)" opacity="0.30"></rect><rect width="136" height="6" x="237" y="252" rx="3" transform="rotate(360, 305, 255)" opacity="0.60"></rect><rect width="139" height="6" x="169.5" y="495" rx="3" transform="rotate(360, 239, 498)" opacity="0.41"></rect><rect width="195" height="6" x="-69.5" y="578" rx="3" transform="rotate(360, 28, 581)" opacity="0.23"></rect><rect width="44" height="6" x="196" y="350" rx="3" transform="rotate(360, 218, 353)" opacity="0.14"></rect><rect width="139" height="6" x="291.5" y="663" rx="3" transform="rotate(360, 361, 666)" opacity="0.47"></rect><rect width="129" height="6" x="435.5" y="176" rx="3" transform="rotate(360, 500, 179)" opacity="0.86"></rect><rect width="106" height="6" x="294" y="418" rx="3" transform="rotate(360, 347, 421)" opacity="0.11"></rect><rect width="42" height="6" x="-1" y="83" rx="3" transform="rotate(360, 20, 86)" opacity="0.64"></rect><rect width="39" height="6" x="684.5" y="197" rx="3" transform="rotate(360, 704, 200)" opacity="0.32"></rect><rect width="151" height="6" x="436.5" y="26" rx="3" transform="rotate(360, 512, 29)" opacity="0.43"></rect><rect width="43" height="6" x="531.5" y="60" rx="3" transform="rotate(360, 553, 63)" opacity="0.57"></rect><rect width="96" height="6" x="223" y="450" rx="3" transform="rotate(360, 271, 453)" opacity="0.93"></rect><rect width="48" height="6" x="305" y="345" rx="3" transform="rotate(360, 329, 348)" opacity="0.78"></rect><rect width="92" height="6" x="334" y="121" rx="3" transform="rotate(360, 380, 124)" opacity="0.12"></rect><rect width="19" height="6" x="188.5" y="564" rx="3" transform="rotate(360, 198, 567)" opacity="0.53"></rect><rect width="113" height="6" x="296.5" y="34" rx="3" transform="rotate(360, 353, 37)" opacity="0.75"></rect><rect width="71" height="6" x="195.5" y="29" rx="3" transform="rotate(360, 231, 32)" opacity="0.87"></rect><rect width="148" height="6" x="-46" y="647" rx="3" transform="rotate(360, 28, 650)" opacity="0.90"></rect><rect width="104" height="6" x="289" y="183" rx="3" transform="rotate(360, 341, 186)" opacity="0.73"></rect><rect width="63" height="6" x="399.5" y="101" rx="3" transform="rotate(360, 431, 104)" opacity="0.40"></rect><rect width="78" height="6" x="-5" y="305" rx="3" transform="rotate(360, 34, 308)" opacity="0.37"></rect><rect width="81" height="6" x="470.5" y="500" rx="3" transform="rotate(360, 511, 503)" opacity="0.30"></rect><rect width="208" height="6" x="107" y="639" rx="3" transform="rotate(360, 211, 642)" opacity="0.97"></rect><rect width="144" height="6" x="8" y="682" rx="3" transform="rotate(360, 80, 685)" opacity="0.35"></rect><rect width="68" height="6" x="732" y="136" rx="3" transform="rotate(360, 766, 139)" opacity="0.76"></rect><rect width="40" height="6" x="90" y="298" rx="3" transform="rotate(360, 110, 301)" opacity="0.53"></rect><rect width="102" height="6" x="96" y="553" rx="3" transform="rotate(360, 147, 556)" opacity="0.70"></rect><rect width="95" height="6" x="135.5" y="238" rx="3" transform="rotate(360, 183, 241)" opacity="0.14"></rect><rect width="123" height="6" x="283.5" y="773" rx="3" transform="rotate(360, 345, 776)" opacity="0.08"></rect><rect width="43" height="6" x="565.5" y="780" rx="3" transform="rotate(360, 587, 783)" opacity="0.28"></rect><rect width="185" height="6" x="467.5" y="446" rx="3" transform="rotate(360, 560, 449)" opacity="0.33"></rect><rect width="50" height="6" x="566" y="210" rx="3" transform="rotate(360, 591, 213)" opacity="0.25"></rect><rect width="139" height="6" x="412.5" y="97" rx="3" transform="rotate(360, 482, 100)" opacity="0.20"></rect><rect width="53" height="6" x="286.5" y="706" rx="3" transform="rotate(360, 313, 709)" opacity="0.12"></rect><rect width="33" height="6" x="107.5" y="177" rx="3" transform="rotate(360, 124, 180)" opacity="0.79"></rect><rect width="113" height="6" x="301.5" y="513" rx="3" transform="rotate(360, 358, 516)" opacity="0.67"></rect><rect width="164" height="6" x="189" y="765" rx="3" transform="rotate(360, 271, 768)" opacity="0.53"></rect><rect width="69" height="6" x="-6.5" y="210" rx="3" transform="rotate(360, 28, 213)" opacity="0.96"></rect><rect width="235" height="6" x="647.5" y="758" rx="3" transform="rotate(360, 765, 761)" opacity="0.92"></rect><rect width="42" height="6" x="525" y="270" rx="3" transform="rotate(360, 546, 273)" opacity="0.52"></rect><rect width="245" height="6" x="15.5" y="39" rx="3" transform="rotate(360, 138, 42)" opacity="0.59"></rect><rect width="173" height="6" x="-2.5" y="393" rx="3" transform="rotate(360, 84, 396)" opacity="0.87"></rect><rect width="129" height="6" x="354.5" y="642" rx="3" transform="rotate(360, 419, 645)" opacity="0.18"></rect><rect width="106" height="6" x="-20" y="768" rx="3" transform="rotate(360, 33, 771)" opacity="0.77"></rect><rect width="47" height="6" x="521.5" y="205" rx="3" transform="rotate(360, 545, 208)" opacity="0.28"></rect><rect width="211" height="6" x="198.5" y="643" rx="3" transform="rotate(360, 304, 646)" opacity="0.27"></rect><rect width="90" height="6" x="670" y="287" rx="3" transform="rotate(360, 715, 290)" opacity="0.23"></rect><rect width="69" height="6" x="447.5" y="264" rx="3" transform="rotate(360, 482, 267)" opacity="0.52"></rect><rect width="88" height="6" x="90" y="432" rx="3" transform="rotate(360, 134, 435)" opacity="0.11"></rect><rect width="61" height="6" x="658.5" y="775" rx="3" transform="rotate(360, 689, 778)" opacity="0.38"></rect><rect width="114" height="6" x="206" y="600" rx="3" transform="rotate(360, 263, 603)" opacity="0.17"></rect><rect width="133" height="6" x="446.5" y="332" rx="3" transform="rotate(360, 513, 335)" opacity="0.97"></rect><rect width="175" height="6" x="573.5" y="171" rx="3" transform="rotate(360, 661, 174)" opacity="0.38"></rect><rect width="47" height="6" x="370.5" y="478" rx="3" transform="rotate(360, 394, 481)" opacity="0.60"></rect><rect width="114" height="6" x="350" y="564" rx="3" transform="rotate(360, 407, 567)" opacity="0.76"></rect><rect width="30" height="6" x="30" y="260" rx="3" transform="rotate(360, 45, 263)" opacity="0.20"></rect><rect width="53" height="6" x="149.5" y="178" rx="3" transform="rotate(360, 176, 181)" opacity="0.76"></rect><rect width="147" height="6" x="240.5" y="480" rx="3" transform="rotate(360, 314, 483)" opacity="0.69"></rect><rect width="92" height="6" x="242" y="205" rx="3" transform="rotate(360, 288, 208)" opacity="0.87"></rect><rect width="174" height="6" x="10" y="618" rx="3" transform="rotate(360, 97, 621)" opacity="0.78"></rect><rect width="122" height="6" x="214" y="160" rx="3" transform="rotate(360, 275, 163)" opacity="0.52"></rect><rect width="85" height="6" x="381.5" y="703" rx="3" transform="rotate(360, 424, 706)" opacity="0.66"></rect><rect width="137" height="6" x="466.5" y="621" rx="3" transform="rotate(360, 535, 624)" opacity="0.21"></rect><rect width="67" height="6" x="89.5" y="243" rx="3" transform="rotate(360, 123, 246)" opacity="0.91"></rect><rect width="127" height="6" x="92.5" y="374" rx="3" transform="rotate(360, 156, 377)" opacity="0.20"></rect><rect width="78" height="6" x="143" y="475" rx="3" transform="rotate(360, 182, 478)" opacity="0.42"></rect><rect width="141" height="6" x="601.5" y="320" rx="3" transform="rotate(360, 672, 323)" opacity="0.45"></rect><rect width="109" height="6" x="368.5" y="523" rx="3" transform="rotate(360, 423, 526)" opacity="0.98"></rect><rect width="107" height="6" x="22.5" y="88" rx="3" transform="rotate(360, 76, 91)" opacity="0.40"></rect><rect width="41" height="6" x="630.5" y="248" rx="3" transform="rotate(360, 651, 251)" opacity="0.89"></rect><rect width="41" height="6" x="580.5" y="277" rx="3" transform="rotate(360, 601, 280)" opacity="0.88"></rect><rect width="45" height="6" x="572.5" y="144" rx="3" transform="rotate(360, 595, 147)" opacity="1.00"></rect><rect width="208" height="6" x="492" y="659" rx="3" transform="rotate(360, 596, 662)" opacity="0.60"></rect><rect width="147" height="6" x="524.5" y="343" rx="3" transform="rotate(360, 598, 346)" opacity="0.58"></rect><rect width="122" height="6" x="303" y="728" rx="3" transform="rotate(360, 364, 731)" opacity="0.63"></rect><rect width="82" height="6" x="-13" y="712" rx="3" transform="rotate(360, 28, 715)" opacity="0.28"></rect><rect width="116" height="6" x="275" y="586" rx="3" transform="rotate(360, 333, 589)" opacity="0.50"></rect><rect width="121" height="6" x="578.5" y="515" rx="3" transform="rotate(360, 639, 518)" opacity="0.13"></rect><rect width="195" height="6" x="45.5" y="689" rx="3" transform="rotate(360, 143, 692)" opacity="0.18"></rect><rect width="43" height="6" x="477.5" y="573" rx="3" transform="rotate(360, 499, 576)" opacity="0.77"></rect><rect width="113" height="6" x="110.5" y="301" rx="3" transform="rotate(360, 167, 304)" opacity="0.84"></rect><rect width="29" height="6" x="492.5" y="386" rx="3" transform="rotate(360, 507, 389)" opacity="0.23"></rect><rect width="118" height="6" x="671" y="36" rx="3" transform="rotate(360, 730, 39)" opacity="0.38"></rect><rect width="101" height="6" x="-21.5" y="357" rx="3" transform="rotate(360, 29, 360)" opacity="0.86"></rect><rect width="211" height="6" x="657.5" y="472" rx="3" transform="rotate(360, 763, 475)" opacity="0.60"></rect><rect width="141" height="6" x="420.5" y="442" rx="3" transform="rotate(360, 491, 445)" opacity="0.93"></rect><rect width="147" height="6" x="616.5" y="466" rx="3" transform="rotate(360, 690, 469)" opacity="0.19"></rect><rect width="181" height="6" x="525.5" y="80" rx="3" transform="rotate(360, 616, 83)" opacity="0.97"></rect><rect width="243" height="6" x="538.5" y="389" rx="3" transform="rotate(360, 660, 392)" opacity="0.88"></rect><rect width="49" height="6" x="461.5" y="752" rx="3" transform="rotate(360, 486, 755)" opacity="0.37"></rect><rect width="168" height="6" x="177" y="691" rx="3" transform="rotate(360, 261, 694)" opacity="0.29"></rect><rect width="143" height="6" x="23.5" y="341" rx="3" transform="rotate(360, 95, 344)" opacity="0.26"></rect><rect width="132" height="6" x="546" y="587" rx="3" transform="rotate(360, 612, 590)" opacity="0.54"></rect><rect width="153" height="6" x="508.5" y="723" rx="3" transform="rotate(360, 585, 726)" opacity="0.63"></rect><rect width="252" height="6" x="288" y="389" rx="3" transform="rotate(360, 414, 392)" opacity="0.26"></rect><rect width="95" height="6" x="391.5" y="454" rx="3" transform="rotate(360, 439, 457)" opacity="0.17"></rect><rect width="80" height="6" x="170" y="708" rx="3" transform="rotate(360, 210, 711)" opacity="0.10"></rect><rect width="54" height="6" x="412" y="188" rx="3" transform="rotate(360, 439, 191)" opacity="0.14"></rect><rect width="199" height="6" x="81.5" y="765" rx="3" transform="rotate(360, 181, 768)" opacity="0.43"></rect><rect width="63" height="6" x="435.5" y="523" rx="3" transform="rotate(360, 467, 526)" opacity="0.76"></rect><rect width="37" height="6" x="115.5" y="508" rx="3" transform="rotate(360, 134, 511)" opacity="0.41"></rect><rect width="219" height="6" x="-75.5" y="426" rx="3" transform="rotate(360, 34, 429)" opacity="0.49"></rect><rect width="100" height="6" x="282" y="292" rx="3" transform="rotate(360, 332, 295)" opacity="0.67"></rect><rect width="88" height="6" x="232" y="76" rx="3" transform="rotate(360, 276, 79)" opacity="0.96"></rect><rect width="111" height="6" x="361.5" y="303" rx="3" transform="rotate(360, 417, 306)" opacity="0.65"></rect><rect width="198" height="6" x="396" y="675" rx="3" transform="rotate(360, 495, 678)" opacity="0.83"></rect><rect width="128" height="6" x="81" y="116" rx="3" transform="rotate(360, 145, 119)" opacity="0.93"></rect><rect width="25" height="6" x="362.5" y="597" rx="3" transform="rotate(360, 375, 600)" opacity="0.95"></rect><rect width="78" height="6" x="271" y="548" rx="3" transform="rotate(360, 310, 551)" opacity="0.42"></rect><rect width="78" height="6" x="499" y="750" rx="3" transform="rotate(360, 538, 753)" opacity="0.18"></rect><rect width="33" height="6" x="64.5" y="550" rx="3" transform="rotate(360, 81, 553)" opacity="0.91"></rect><rect width="127" height="6" x="714.5" y="259" rx="3" transform="rotate(360, 778, 262)" opacity="0.92"></rect><rect width="207" height="6" x="649.5" y="389" rx="3" transform="rotate(360, 753, 392)" opacity="0.65"></rect><rect width="68" height="6" x="67" y="758" rx="3" transform="rotate(360, 101, 761)" opacity="0.74"></rect><rect width="191" height="6" x="590.5" y="110" rx="3" transform="rotate(360, 686, 113)" opacity="0.26"></rect><rect width="201" height="6" x="111.5" y="112" rx="3" transform="rotate(360, 212, 115)" opacity="0.44"></rect><rect width="169" height="6" x="683.5" y="603" rx="3" transform="rotate(360, 768, 606)" opacity="0.86"></rect><rect width="218" height="6" x="424" y="116" rx="3" transform="rotate(360, 533, 119)" opacity="0.30"></rect><rect width="93" height="6" x="-23.5" y="149" rx="3" transform="rotate(360, 23, 152)" opacity="0.38"></rect><rect width="181" height="6" x="615.5" y="721" rx="3" transform="rotate(360, 706, 724)" opacity="0.76"></rect><rect width="146" height="6" x="491" y="527" rx="3" transform="rotate(360, 564, 530)" opacity="0.49"></rect><rect width="112" height="6" x="572" y="196" rx="3" transform="rotate(360, 628, 199)" opacity="0.35"></rect><rect width="125" height="6" x="216.5" y="385" rx="3" transform="rotate(360, 279, 388)" opacity="0.94"></rect><rect width="50" height="6" x="203" y="169" rx="3" transform="rotate(360, 228, 172)" opacity="0.96"></rect><rect width="62" height="6" x="195" y="214" rx="3" transform="rotate(360, 226, 217)" opacity="0.49"></rect><rect width="206" height="6" x="282" y="226" rx="3" transform="rotate(360, 385, 229)" opacity="0.91"></rect><rect width="100" height="6" x="717" y="680" rx="3" transform="rotate(360, 767, 683)" opacity="0.66"></rect></g></svg>