<svg version="1.1" id="Layer_1" xmlns="http://www.w3.org/2000/svg" xmlns:xlink="http://www.w3.org/1999/xlink" x="0px" y="0px"
	 width="100%" viewBox="0 0 1320 1000" enable-background="new 0 0 1320 1000" xml:space="preserve">
<path fill="#150A18" opacity="1.000000" stroke="none" 
	d="
M1211.000000,1001.000000 
	C807.333313,1001.000000 404.166656,1001.000000 1.000000,1001.000000 
	C1.000000,667.666687 1.000000,334.333344 1.000000,1.000000 
	C441.000000,1.000000 881.000000,1.000000 1321.000000,1.000000 
	C1321.000000,334.333344 1321.000000,667.666687 1321.000000,1001.000000 
	C1284.500000,1001.000000 1248.000000,1001.000000 1211.000000,1001.000000 
M204.677307,493.302948 
	C213.459946,489.403198 217.722000,483.070282 217.367218,474.447083 
	C217.028732,466.219635 212.180756,460.024933 202.683990,456.938721 
	C197.874496,468.269989 193.017929,479.712189 187.790268,492.028687 
	C193.258804,493.223846 197.161499,494.076782 201.170883,495.653870 
	C200.457336,496.073944 199.704437,496.439575 199.036392,496.922607 
	C193.236206,501.116211 191.373993,507.944061 194.346329,514.030396 
	C197.219376,519.913391 203.893997,522.851501 210.260590,521.035828 
	C216.327072,519.305725 220.430939,513.365479 219.921432,507.051941 
	C219.380096,500.343933 214.270813,495.444305 207.157883,494.743011 
	C206.246811,494.653168 205.363770,494.278931 204.677307,493.302948 
M467.058441,537.972595 
	C467.058441,537.972595 466.985321,537.960632 467.079498,538.874573 
	C467.079498,541.971069 467.079498,545.067505 467.079498,548.252319 
	C469.778412,548.464233 471.866760,548.628113 474.396179,548.826721 
	C474.396179,553.542419 474.396179,557.972595 474.396179,562.970886 
	C479.564331,562.970886 484.271332,562.970886 489.285950,562.970886 
	C489.285950,567.505981 489.285950,571.446716 489.285950,575.989136 
	C493.794373,575.989136 497.995026,575.989136 502.137634,575.989136 
	C502.301086,578.886169 502.429810,581.167664 502.566376,583.587891 
	C509.319275,583.587891 515.724060,583.587891 522.382751,583.587891 
	C522.382751,581.243469 522.382751,579.157227 522.382751,576.927002 
	C520.880737,576.591797 519.513306,576.286621 518.255859,576.005981 
	C518.255859,571.522705 518.255859,567.403748 518.255859,562.841309 
	C521.692932,562.841309 524.936829,562.841309 528.637817,562.841309 
	C528.637817,557.984131 528.637817,553.553223 528.637817,549.040039 
	C530.623474,548.652405 532.179871,548.348572 534.075256,547.978516 
	C534.075256,535.182983 534.075256,522.533691 534.136536,509.834534 
	C534.136536,509.834534 534.080688,509.778656 534.820496,509.237915 
	C537.772095,509.237915 540.723755,509.237915 544.509766,509.237915 
	C544.966370,515.407166 545.567566,521.131958 545.766541,526.870728 
	C545.979675,533.020020 545.813965,539.182373 545.813904,545.339050 
	C545.813782,552.268738 545.813904,559.198425 545.813904,566.188904 
	C547.800659,566.445557 549.237549,566.631226 551.186523,566.883057 
	C551.186523,572.559814 551.186523,578.117737 551.186523,583.537659 
	C570.122314,583.537659 588.519714,583.537659 607.432495,583.537659 
	C607.432495,578.845032 607.432495,574.450562 607.432495,569.658691 
	C611.874695,569.658691 615.799561,569.658691 619.751343,569.658691 
	C619.751343,559.834167 619.751343,550.429749 619.751343,540.970703 
	C616.906921,540.845703 614.327454,540.732361 611.367676,540.602295 
	C611.497437,538.570068 611.596497,537.018433 611.702393,535.360229 
	C614.735229,535.211487 617.307556,535.085327 620.243835,534.941345 
	C620.243835,530.809814 620.243835,527.054443 620.243835,522.944641 
	C624.929443,522.944641 629.227844,522.944641 633.403625,523.876953 
	C631.518005,531.994995 636.091492,539.369751 636.095886,547.269775 
	C636.099792,554.265015 636.096680,561.260315 636.096680,568.255554 
	C636.096680,573.349060 636.096680,578.442566 636.096680,583.851807 
	C639.729797,583.851807 642.704529,583.861084 645.679138,583.848938 
	C648.175537,583.838806 651.836060,584.848572 652.961609,583.594421 
	C657.267029,578.797058 662.457214,581.400940 667.135864,581.145508 
	C675.700989,580.677856 684.309937,581.012329 692.649902,581.012329 
	C694.146362,574.806763 690.717896,568.520569 696.710754,562.857483 
	C684.946350,562.857483 674.410950,562.857483 663.696350,562.857483 
	C663.438293,559.890442 663.232117,557.519348 663.032532,555.224548 
	C660.371826,555.003784 658.100281,554.815308 655.828674,554.626831 
	C655.830200,554.056396 655.831726,553.485962 655.833252,552.915527 
	C658.236328,552.686340 660.639343,552.457153 663.482178,552.186035 
	C663.482178,543.644470 663.482178,535.414917 663.482178,526.701660 
	C673.204468,526.701660 682.453857,526.701660 691.857971,526.701660 
	C691.388245,519.720581 690.952942,513.251343 690.493225,506.419128 
	C679.742126,506.419128 669.138000,506.419128 658.351624,506.419128 
	C658.351624,497.299500 658.351624,488.557251 658.351624,479.344543 
	C670.696289,479.344543 682.771545,479.344543 694.791992,479.344543 
	C694.791992,472.146973 694.791992,465.425964 694.791992,458.821411 
	C674.206238,458.821411 653.966064,458.821411 633.528137,458.821411 
	C633.528137,479.464569 633.528137,499.757446 632.534241,520.146057 
	C628.454041,520.146057 624.373840,520.146057 619.948669,520.146057 
	C619.948669,499.001740 619.948669,478.579773 619.948669,458.061493 
	C611.844482,458.061493 604.106934,458.061493 595.935852,458.061493 
	C595.935852,485.539886 595.935852,512.789978 595.935852,539.979553 
	C593.567993,540.157043 591.640076,540.301575 589.191467,540.485107 
	C589.191467,547.867615 589.191467,554.922974 589.191467,562.161133 
	C587.489075,562.161133 586.336731,562.158386 585.184448,562.161499 
	C572.958191,562.194702 569.886902,559.689758 568.603455,547.377991 
	C567.932190,540.939880 568.186829,534.405273 568.937683,528.012146 
	C573.205139,528.012146 577.472595,528.012146 581.740051,528.012146 
	C581.981506,527.506226 582.222900,527.000366 582.464355,526.494446 
	C581.284851,525.709290 580.156738,524.358337 578.916199,524.245728 
	C575.306702,523.918091 571.652161,524.086243 568.109192,523.119080 
	C568.109192,501.402588 568.109192,479.686127 568.109192,458.122375 
	C559.681335,458.122375 551.942017,458.122375 543.933838,458.122375 
	C543.933838,471.199005 543.934875,483.984192 543.933533,496.769379 
	C543.932556,506.498779 543.931213,506.498779 533.899658,504.110168 
	C533.573364,498.301392 533.465820,492.470398 532.878174,486.688171 
	C531.352966,471.681641 523.383850,461.600037 510.314606,459.290009 
	C503.865570,458.150146 497.024719,457.950256 490.516083,458.689392 
	C476.809418,460.246063 468.388275,467.450592 466.096008,481.072662 
	C464.182098,492.446259 464.398712,504.189545 463.856689,515.777771 
	C463.611542,521.018738 463.815094,526.280701 463.815094,531.938599 
	C460.189667,531.938599 457.101196,531.938599 454.040314,531.938599 
	C454.040314,533.946167 454.040314,535.534241 454.040314,537.192261 
	C458.565582,537.485901 462.828339,537.762573 467.058441,537.972595 
M707.039673,551.903015 
	C707.039673,555.882874 707.039673,559.862732 707.039673,564.170959 
	C711.473694,564.170959 715.603577,564.170959 720.363281,564.170959 
	C720.363281,570.885742 720.363281,577.278748 720.363281,583.652039 
	C739.274536,583.652039 757.551453,583.652039 776.299927,583.652039 
	C776.299927,577.188416 776.299927,570.916626 776.299927,564.484558 
	C778.973450,564.251343 781.193176,564.057678 783.587769,563.848755 
	C783.587769,553.141113 783.645264,542.820679 783.549255,532.501709 
	C783.523621,529.753967 785.078918,526.037170 780.216614,525.382812 
	C780.095703,525.366516 780.201355,523.666748 780.201355,522.672363 
	C782.845642,522.556458 785.198181,522.453308 787.550659,522.350220 
	C775.280518,522.791748 763.086060,522.759277 750.905640,522.187073 
	C750.896912,521.536560 750.888184,520.885986 750.879456,520.235474 
	C757.821472,520.235474 764.763489,520.235474 771.705505,520.235474 
	C771.840881,519.754395 771.976196,519.273315 772.111511,518.792236 
	C767.435364,516.187073 762.830322,513.442383 758.064575,511.013062 
	C752.453247,508.152802 746.478516,505.947205 741.066895,502.767487 
	C733.666809,498.419373 732.117188,485.872162 737.976013,481.120300 
	C745.766296,474.801849 758.970581,479.416779 760.901611,489.145355 
	C761.119995,490.245544 761.198242,491.373474 761.399658,492.941589 
	C768.024780,492.455963 774.407959,491.988037 781.250916,491.486420 
	C780.774170,488.023865 780.581970,485.037415 779.927551,482.155975 
	C777.370911,470.898712 771.903137,462.096100 759.731018,459.344849 
	C748.915405,456.900208 738.172791,457.412384 727.780334,461.203339 
	C719.951782,464.059082 714.956177,469.864227 712.697449,477.958679 
	C709.184631,490.547882 710.703552,509.106934 725.426636,519.039490 
	C725.548462,519.121643 725.414001,519.583557 725.369751,520.436096 
	C721.915344,520.436096 718.444824,520.436096 714.974243,520.436096 
	C714.959106,520.974426 714.943970,521.512695 714.928833,522.051025 
	C722.908386,522.051025 730.887939,522.051025 739.286133,522.051025 
	C739.286133,526.178040 739.286133,529.266602 739.286133,532.957520 
	C746.087158,532.957520 752.452759,532.957520 758.707397,532.957520 
	C758.707397,543.666992 758.707397,553.760071 758.707397,563.908813 
	C750.031250,563.908813 741.619080,563.908813 732.685181,563.908813 
	C732.685181,556.952454 732.685181,550.221741 732.685181,543.151978 
	C724.531555,543.151978 716.894775,543.074280 709.265259,543.274719 
	C708.520813,543.294312 707.821350,545.027710 706.314514,546.414490 
	C704.996521,546.439941 703.669678,546.574646 702.362183,546.469604 
	C698.926208,546.193604 697.886536,547.562744 699.351379,550.973572 
	C701.866699,550.973572 704.486328,550.973572 707.039673,551.903015 
M1010.964905,512.134705 
	C1010.628967,505.486847 1010.488281,498.822296 1009.920593,492.194275 
	C1008.222473,472.367401 998.309448,461.260834 978.920715,458.434021 
	C972.608459,457.513702 965.919983,457.928741 959.559448,458.831268 
	C944.024536,461.035461 935.168274,469.465698 931.994751,484.828918 
	C930.690796,491.141418 929.971436,497.658691 929.803955,504.104095 
	C929.471130,516.907776 929.705566,529.726196 929.705566,542.975281 
	C925.827087,542.975281 922.075867,542.975281 918.161011,542.975281 
	C918.161011,545.479248 918.161011,547.545227 918.161011,550.000610 
	C923.283569,550.000610 928.219055,550.000610 933.653198,550.000610 
	C933.653198,554.458496 933.653198,558.534119 933.653198,563.081848 
	C937.575378,563.081848 940.987183,563.081848 944.745972,563.081848 
	C944.745972,568.662170 944.745972,573.759277 944.745972,578.959595 
	C946.526062,579.126892 947.961243,579.261780 949.389771,579.396057 
	C949.724121,581.055420 949.997864,582.414185 950.242554,583.628296 
	C964.457153,583.628296 978.225769,583.628296 992.119141,583.628296 
	C992.463684,582.073364 992.768860,580.696167 993.160767,578.927612 
	C997.130493,578.927612 1000.880005,578.927612 1004.954224,578.927612 
	C1004.954224,573.367065 1004.954224,568.262146 1004.954224,562.979309 
	C1007.058350,562.875000 1008.811035,562.788086 1010.926697,562.683228 
	C1010.926697,547.413574 1010.926697,532.469727 1011.827637,517.216736 
	C1016.429626,517.216736 1021.031616,517.216736 1025.776245,517.216736 
	C1025.776245,523.197021 1025.776245,528.656433 1025.776245,534.097778 
	C1023.874146,534.424133 1022.143921,534.721069 1020.652100,534.977112 
	C1020.652100,540.125183 1020.652100,544.877136 1020.652100,549.984192 
	C1024.636230,549.984192 1028.243652,549.984192 1031.997070,549.984192 
	C1031.997070,552.305298 1031.997070,554.253784 1031.997070,555.880432 
	C1029.433228,557.152405 1027.067627,558.325989 1023.382629,560.154175 
	C1027.165649,560.419250 1029.435059,560.578308 1032.203857,560.772339 
	C1032.203857,566.914673 1032.203857,572.997925 1032.203857,579.233643 
	C1055.107300,579.233643 1077.501953,579.233643 1100.053101,579.233643 
	C1100.053101,567.360352 1100.053101,555.777710 1100.053101,544.094604 
	C1097.964844,543.870605 1096.076904,543.668091 1094.274048,543.474670 
	C1094.274048,541.486084 1094.274048,539.874695 1094.274048,537.720703 
	C1098.538696,537.720703 1102.600708,537.720703 1107.092285,537.720703 
	C1107.092285,531.278320 1107.092285,525.372742 1107.092285,519.092468 
	C1109.295044,519.092468 1111.043945,519.092468 1112.792969,519.092468 
	C1113.001587,518.545715 1113.210205,517.999023 1113.418823,517.452271 
	C1112.284424,516.908142 1111.161255,515.922546 1110.013916,515.893555 
	C1103.852295,515.737610 1097.684814,515.819763 1091.519287,515.819763 
	C1082.897095,515.819702 1074.274902,515.819702 1065.785645,515.819702 
	C1065.785645,521.469727 1065.785645,526.554565 1065.785645,532.029663 
	C1071.090088,532.029663 1076.020264,532.029663 1080.953125,532.029663 
	C1080.953125,542.179565 1080.953125,551.917847 1080.953125,561.741394 
	C1072.612549,561.741394 1064.531616,561.741394 1056.160889,561.741394 
	C1056.160889,555.853394 1056.160889,550.211243 1056.160889,544.412231 
	C1054.326782,544.232849 1052.767944,544.080383 1051.099731,543.917297 
	C1051.099731,528.580811 1050.979858,513.599304 1051.190063,498.622528 
	C1051.238159,495.186768 1052.126831,491.676392 1053.144653,488.358734 
	C1055.232788,481.553101 1060.546631,478.226471 1068.102051,478.547607 
	C1076.236450,478.893341 1081.271484,482.464050 1082.984375,489.360596 
	C1083.687256,492.190948 1083.975586,495.124298 1084.489746,498.236664 
	C1091.300415,497.309326 1097.844482,496.418304 1104.870728,495.461609 
	C1104.554810,491.508728 1104.422241,487.885254 1103.951416,484.306244 
	C1102.166748,470.740204 1094.693481,461.785004 1081.703369,459.505890 
	C1073.764282,458.113007 1065.401489,457.613037 1057.399536,458.414246 
	C1040.209839,460.135345 1030.360718,470.071350 1027.924683,487.107452 
	C1026.709351,495.606812 1026.257202,504.215302 1025.431396,513.079834 
	C1020.570251,513.079834 1015.758667,513.079834 1010.964905,512.134705 
M835.906921,576.095642 
	C835.851685,573.718628 835.796387,571.341675 836.663818,568.727356 
	C840.077332,567.960571 844.141052,570.124084 846.926086,565.957886 
	C843.326355,565.957886 839.726685,565.957886 835.938232,565.042725 
	C835.938232,536.441345 835.938232,507.839935 835.938232,479.109467 
	C842.432373,479.109467 848.489868,479.109467 855.034790,479.109467 
	C855.034790,501.759308 855.034790,524.148987 855.034790,546.917114 
	C857.265991,546.917114 859.024719,546.917114 860.913330,546.917114 
	C861.862122,552.863464 856.297485,548.932007 855.322876,550.913086 
	C855.322876,561.490906 855.322876,571.718994 855.322876,581.087952 
	C867.510986,582.029724 879.231018,583.122131 890.975586,583.772095 
	C897.927734,584.156799 904.918640,583.842468 912.105164,583.842468 
	C912.350891,581.304504 912.567505,579.067078 912.794556,576.722168 
	C915.560547,576.568970 918.022461,576.432556 920.484314,576.296204 
	C920.462891,575.938843 920.441467,575.581543 920.420105,575.224182 
	C917.872803,575.224182 915.325500,575.224182 912.279419,575.224182 
	C912.279419,570.817627 912.279419,566.919861 912.279419,562.793701 
	C899.632263,562.793701 887.499573,562.793701 875.204956,562.793701 
	C875.204956,544.927734 875.204956,527.321960 875.204956,509.475891 
	C876.873779,509.260834 878.394531,509.064880 879.777588,508.886658 
	C879.777588,491.484955 879.777588,474.548981 879.777588,457.699829 
	C848.525513,457.699829 817.506348,457.699829 786.600708,457.699829 
	C786.600708,465.005157 786.600708,471.761505 786.600708,478.928406 
	C794.845276,478.928406 802.756470,478.928406 811.116943,478.928406 
	C811.116943,514.065186 811.116943,548.782166 811.116943,583.312744 
	C819.024414,583.312744 826.460571,583.312744 834.776794,583.312744 
	C832.230530,581.683105 830.532715,580.596497 828.834961,579.509888 
	C829.083923,579.068970 829.332947,578.628052 829.581970,578.187195 
	C831.380615,578.074646 833.179199,577.962097 835.533691,577.925232 
	C835.618835,577.609924 835.703979,577.294556 835.906921,576.095642 
M320.161499,563.641113 
	C318.837402,547.765686 310.021851,536.733337 295.033539,532.194702 
	C279.095673,527.368469 261.344635,536.140381 254.741241,552.105713 
	C248.395172,567.448914 255.013016,586.434448 269.152588,594.322021 
	C292.979706,607.613525 320.467865,590.116150 320.161499,563.641113 
M391.003662,544.447266 
	C394.426788,535.350403 394.115845,526.670654 388.237762,518.548218 
	C381.127716,508.723389 368.587769,505.363800 356.632233,510.145813 
	C346.746246,514.099976 340.093994,525.933044 341.637665,536.818115 
	C343.297882,548.524963 351.414307,557.457947 362.249603,559.503784 
	C373.840942,561.692383 384.601471,556.273499 391.003662,544.447266 
M330.712402,444.561584 
	C320.307495,440.978973 310.852173,442.710938 303.046844,450.455902 
	C295.726654,457.719421 293.492279,466.682617 296.565216,476.646454 
	C300.081909,488.048981 311.106964,495.601807 322.853943,494.897003 
	C334.469727,494.200043 344.566162,485.526154 346.864227,474.269745 
	C349.370636,461.992706 343.470856,450.747253 330.712402,444.561584 
M359.123322,445.668701 
	C350.262329,459.579681 349.431854,473.744080 357.377625,488.416412 
	C364.207642,501.028442 381.843414,510.021393 395.109406,507.162811 
	C393.066376,481.064026 382.677368,458.888092 364.151733,439.965607 
	C362.384460,441.956299 360.980072,443.538269 359.123322,445.668701 
M260.977753,462.598175 
	C273.389771,469.771851 287.233704,466.567596 293.874512,454.984100 
	C300.155823,444.027649 296.421173,430.179291 285.453033,423.756866 
	C275.322906,417.825195 262.002686,420.675903 255.222443,430.226715 
	C247.883011,440.565186 249.942474,453.274414 260.977753,462.598175 
M241.141220,501.090027 
	C241.034836,502.581604 240.833847,504.073395 240.837311,505.564728 
	C240.861145,515.844360 247.959000,524.682617 257.861969,526.823914 
	C267.926910,529.000366 277.973877,524.087402 282.369507,514.839905 
	C287.812622,503.388580 282.406708,489.599457 270.670807,484.999817 
	C258.326111,480.161560 245.811737,486.665894 241.141220,501.090027 
M249.991516,583.202454 
	C250.091934,571.245300 243.829086,562.380676 233.603043,560.005798 
	C222.980087,557.538635 212.730499,562.458252 208.263855,572.042908 
	C207.025162,574.700928 206.778290,576.948608 209.106186,579.200073 
	C215.196808,585.090759 220.883087,591.438110 227.291458,596.951416 
	C234.842712,603.448059 239.022949,602.891724 245.110596,594.824768 
	C247.417206,591.768188 248.368179,587.688477 249.991516,583.202454 
M360.851837,580.223877 
	C360.955353,577.905151 361.318115,575.563782 361.118042,573.271545 
	C360.198700,562.737122 350.104340,554.951782 339.660797,556.580688 
	C328.465851,558.326721 321.038605,568.757080 323.434235,579.368225 
	C325.369019,587.938171 332.169250,593.912903 340.900421,594.714111 
	C349.394806,595.493591 356.971619,590.214661 360.851837,580.223877 
M227.851379,483.806549 
	C234.776505,487.683777 241.655624,487.600616 247.976517,482.778870 
	C253.572296,478.510284 255.914566,472.569946 254.536758,465.549652 
	C252.978836,457.611511 246.658813,452.104980 238.578964,451.298218 
	C231.399918,450.581421 223.934158,455.170135 221.040344,462.078094 
	C217.832275,469.736267 220.072510,477.384857 227.851379,483.806549 
M314.580109,526.186584 
	C322.213531,519.691467 324.220337,511.525421 320.123077,503.631012 
	C316.472961,496.598022 308.379211,492.735504 300.892456,494.511658 
	C293.567780,496.249390 288.816528,500.863678 287.275635,508.135742 
	C285.778381,515.201782 288.028931,521.414734 293.901306,525.761353 
	C300.270081,530.475403 307.112152,530.508789 314.580109,526.186584 
M223.323593,534.324524 
	C218.275070,526.925598 211.743301,524.161438 203.671783,526.008362 
	C197.304398,527.465210 191.922150,533.285095 190.883682,539.836182 
	C189.942505,545.773499 194.304794,555.367126 199.302933,558.351929 
	C205.491043,562.047302 213.632950,561.347717 219.324295,556.631531 
	C225.637360,551.400146 227.188324,543.806702 223.323593,534.324524 
M328.987396,419.974945 
	C327.626343,418.571167 326.485870,416.335022 324.866547,415.905945 
	C317.353638,413.915039 309.680969,412.536469 302.122284,410.704498 
	C298.822418,409.904694 297.276489,411.405243 295.920898,414.023895 
	C292.657349,420.328308 293.477386,428.158508 298.124939,433.616913 
	C302.953613,439.288147 310.554047,441.328552 317.573181,438.838104 
	C324.819580,436.267029 328.980316,429.719391 328.987396,419.974945 
M325.707092,525.250305 
	C317.857391,527.074707 313.676849,531.834106 314.093628,538.471985 
	C314.475311,544.551025 319.210083,549.467834 325.222382,550.028625 
	C332.199005,550.679382 338.118622,545.955322 338.913971,539.102234 
	C339.750885,531.891235 334.995697,526.568481 325.707092,525.250305 
M306.045258,615.226746 
	C302.749237,606.297791 296.225372,601.579285 287.813629,602.040710 
	C279.707001,602.485291 273.483063,608.022827 271.376801,616.857544 
	C282.538513,619.015930 293.726166,619.380981 304.967285,617.861023 
	C305.447327,617.796143 305.777191,616.620056 306.045258,615.226746 
M322.033112,590.695435 
	C314.347992,589.322021 307.651978,596.858093 309.320923,604.371216 
	C310.577454,610.027832 315.625671,613.918945 321.239929,613.574585 
	C326.773865,613.235107 331.281311,609.029053 331.953064,603.577820 
	C332.705383,597.472717 329.519348,593.027893 322.033112,590.695435 
M222.251801,446.026001 
	C237.524368,448.597443 249.632004,433.286804 246.226990,420.552307 
	C233.945709,425.832397 223.789551,433.760864 214.289871,443.791870 
	C217.073334,444.651886 219.260269,445.327637 222.251801,446.026001 
M247.152740,553.727539 
	C251.547089,548.906555 252.519577,543.826660 249.928101,539.230713 
	C247.592316,535.088318 242.565277,532.551636 238.132446,533.447510 
	C233.322220,534.419739 230.031525,537.176147 228.786789,542.054993 
	C227.534683,546.962830 229.106979,551.025085 233.045715,553.956177 
	C237.378662,557.180725 242.004227,557.062866 247.152740,553.727539 
M342.141693,423.391296 
	C340.431732,422.539032 338.721802,421.686768 337.000885,420.829010 
	C332.855896,426.154572 332.292755,431.520721 335.174377,437.002380 
	C337.777588,441.954468 342.202209,444.540649 347.792419,444.384247 
	C353.406982,444.227112 357.794159,441.752960 360.574646,435.874634 
	C354.518219,431.770264 348.637482,427.784943 342.141693,423.391296 
M220.361420,517.302551 
	C217.684509,525.056824 224.872177,532.745239 232.922729,530.626404 
	C237.379166,529.453430 240.577545,525.333191 240.690369,520.792358 
	C240.806824,516.105347 237.504150,511.757446 232.873138,510.500977 
	C228.000366,509.178955 223.905609,511.213501 220.361420,517.302551 
M284.268982,467.045410 
	C278.165222,467.470703 274.580109,469.890228 273.346313,474.695099 
	C272.196686,479.172180 273.530151,482.979462 277.233032,485.728333 
	C280.766418,488.351349 284.645477,488.584442 288.478455,486.366486 
	C292.098511,484.271759 294.009827,480.966644 293.681671,476.820251 
	C293.266663,471.575439 290.188110,468.366669 284.268982,467.045410 
M348.514252,510.981567 
	C348.702362,510.003723 348.985748,509.033295 349.063049,508.046783 
	C349.531067,502.070984 345.470032,497.344269 339.593201,496.967682 
	C333.832397,496.598511 329.433624,500.474854 328.861816,506.350983 
	C328.374817,511.355743 330.960327,514.645935 335.090607,516.645691 
	C339.517853,518.789307 344.374451,516.758911 348.514252,510.981567 
M264.284424,596.166748 
	C262.878143,595.336853 261.561707,594.245789 260.048981,593.725342 
	C255.250977,592.074463 250.119171,594.216309 247.892929,598.768005 
	C245.977448,602.684387 246.161392,606.727295 249.209778,609.832764 
	C252.950592,613.643616 260.276733,614.112854 263.698273,611.338196 
	C267.977814,607.867798 268.417938,602.016602 264.284424,596.166748 
M225.015198,495.679596 
	C225.805405,500.756134 228.234207,502.956451 232.267761,502.249786 
	C235.755936,501.638733 238.283325,498.198425 236.867386,494.927307 
	C236.023956,492.978790 233.340408,490.265778 231.888992,490.492218 
	C229.462128,490.870758 227.359360,493.326965 225.015198,495.679596 
M1059.559326,581.048157 
	C1050.591675,581.048157 1050.591675,581.048157 1050.291870,583.994995 
	C1058.828613,583.545776 1067.395874,584.723206 1075.836792,583.336914 
	C1075.853882,582.573975 1075.870850,581.811096 1075.887817,581.048157 
	C1070.771484,581.048157 1065.655029,581.048157 1059.559326,581.048157 
z"/>
<path fill="#FCFCFC" opacity="1.000000" stroke="none" 
	d="
M835.741150,568.964661 
	C835.796387,571.341675 835.851685,573.718628 835.669922,576.636597 
	C835.235413,577.370544 835.083740,577.594543 834.977783,577.849548 
	C833.179199,577.962097 831.380615,578.074646 829.581970,578.187195 
	C829.332947,578.628052 829.083923,579.068970 828.834961,579.509888 
	C830.532715,580.596497 832.230530,581.683105 834.776794,583.312744 
	C826.460571,583.312744 819.024414,583.312744 811.116943,583.312744 
	C811.116943,548.782166 811.116943,514.065186 811.116943,478.928406 
	C802.756470,478.928406 794.845276,478.928406 786.600708,478.928406 
	C786.600708,471.761505 786.600708,465.005157 786.600708,457.699829 
	C817.506348,457.699829 848.525513,457.699829 879.777588,457.699829 
	C879.777588,474.548981 879.777588,491.484955 879.777588,508.886658 
	C878.394531,509.064880 876.873779,509.260834 875.204956,509.475891 
	C875.204956,527.321960 875.204956,544.927734 875.204956,562.793701 
	C887.499573,562.793701 899.632263,562.793701 912.279419,562.793701 
	C912.279419,566.919861 912.279419,570.817627 912.279419,575.224182 
	C915.325500,575.224182 917.872803,575.224182 920.420105,575.224182 
	C920.441467,575.581543 920.462891,575.938843 920.484314,576.296204 
	C918.022461,576.432556 915.560547,576.568970 912.794556,576.722168 
	C912.567505,579.067078 912.350891,581.304504 912.105164,583.842468 
	C904.918640,583.842468 897.927734,584.156799 890.975586,583.772095 
	C879.231018,583.122131 867.510986,582.029724 855.322876,581.087952 
	C855.322876,571.718994 855.322876,561.490906 855.322876,550.913086 
	C856.297485,548.932007 861.862122,552.863464 860.913330,546.917114 
	C859.024719,546.917114 857.265991,546.917114 855.034790,546.917114 
	C855.034790,524.148987 855.034790,501.759308 855.034790,479.109467 
	C848.489868,479.109467 842.432373,479.109467 835.938232,479.109467 
	C835.938232,507.839935 835.938232,536.441345 835.648804,565.641113 
	C832.662109,566.647583 829.964783,567.055664 827.267517,567.463745 
	C827.306580,567.964050 827.345581,568.464355 827.384644,568.964661 
	C830.170166,568.964661 832.955627,568.964661 835.741150,568.964661 
z"/>
<path fill="#FCFCFC" opacity="1.000000" stroke="none" 
	d="
M1010.926697,517.525879 
	C1010.926697,532.469727 1010.926697,547.413574 1010.926697,562.683228 
	C1008.811035,562.788086 1007.058350,562.875000 1004.954224,562.979309 
	C1004.954224,568.262146 1004.954224,573.367065 1004.954224,578.927612 
	C1000.880005,578.927612 997.130493,578.927612 993.160767,578.927612 
	C992.768860,580.696167 992.463684,582.073364 992.119141,583.628296 
	C978.225769,583.628296 964.457153,583.628296 950.242554,583.628296 
	C949.997864,582.414185 949.724121,581.055420 949.389771,579.396057 
	C947.961243,579.261780 946.526062,579.126892 944.745972,578.959595 
	C944.745972,573.759277 944.745972,568.662170 944.745972,563.081848 
	C940.987183,563.081848 937.575378,563.081848 933.653198,563.081848 
	C933.653198,558.534119 933.653198,554.458496 933.653198,550.000610 
	C928.219055,550.000610 923.283569,550.000610 918.161011,550.000610 
	C918.161011,547.545227 918.161011,545.479248 918.161011,542.975281 
	C922.075867,542.975281 925.827087,542.975281 929.705566,542.975281 
	C929.705566,529.726196 929.471130,516.907776 929.803955,504.104095 
	C929.971436,497.658691 930.690796,491.141418 931.994751,484.828918 
	C935.168274,469.465698 944.024536,461.035461 959.559448,458.831268 
	C965.919983,457.928741 972.608459,457.513702 978.920715,458.434021 
	C998.309448,461.260834 1008.222473,472.367401 1009.920593,492.194275 
	C1010.488281,498.822296 1010.628967,505.486847 1010.990967,512.573547 
	C1011.017029,513.012390 1011.070007,512.930786 1010.603271,512.960205 
	C1007.360168,512.989563 1004.583862,512.989563 1001.807495,512.989563 
	C1001.565491,513.549988 1001.323486,514.110413 1001.081421,514.670837 
	C1002.274902,515.501404 1003.367126,516.742615 1004.685303,517.067566 
	C1006.732910,517.572449 1008.934265,517.453857 1011.033569,517.583008 
	C1010.996582,517.566589 1010.926697,517.525879 1010.926697,517.525879 
M954.901428,559.292725 
	C955.602966,560.470276 956.260986,562.636597 957.012817,562.669678 
	C963.256287,562.944519 969.517090,562.825439 975.698486,562.825439 
	C975.906921,560.034058 976.062195,557.955872 976.233765,555.658447 
	C979.457520,555.658447 982.244202,555.658447 985.520874,555.658447 
	C985.520874,553.789490 985.518127,552.164490 985.521301,550.539429 
	C985.545105,538.393250 985.774170,526.242920 985.524780,514.102417 
	C985.350830,505.635681 984.892456,497.133331 983.783264,488.749786 
	C983.396545,485.826843 981.327332,482.255157 978.914795,480.624969 
	C969.337708,474.153534 957.226196,479.989960 956.005920,491.431763 
	C955.253662,498.484863 955.026245,505.593872 954.534241,513.121338 
	C951.618652,513.121338 948.705872,513.121338 945.485046,513.121338 
	C946.120483,520.635315 952.586853,514.877136 954.898499,518.023376 
	C954.898499,531.378540 954.898499,544.855408 954.901428,559.292725 
M940.015442,547.429260 
	C939.934021,546.013367 939.852600,544.597412 939.778809,543.314636 
	C937.487244,543.314636 935.590454,543.314636 933.897705,543.314636 
	C933.897705,545.689453 933.897705,547.740845 933.897705,550.921509 
	C936.369629,549.889038 938.189758,549.128845 940.015442,547.429260 
z"/>
<path fill="#FBFAFB" opacity="1.000000" stroke="none" 
	d="
M1011.377197,517.371338 
	C1010.926697,517.525879 1010.996582,517.566589 1010.987915,517.117432 
	C1011.009521,515.422485 1011.039734,514.176636 1011.070007,512.930786 
	C1011.070007,512.930786 1011.017029,513.012390 1010.982056,513.046143 
	C1015.758667,513.079834 1020.570251,513.079834 1025.431396,513.079834 
	C1026.257202,504.215302 1026.709351,495.606812 1027.924683,487.107452 
	C1030.360718,470.071350 1040.209839,460.135345 1057.399536,458.414246 
	C1065.401489,457.613037 1073.764282,458.113007 1081.703369,459.505890 
	C1094.693481,461.785004 1102.166748,470.740204 1103.951416,484.306244 
	C1104.422241,487.885254 1104.554810,491.508728 1104.870728,495.461609 
	C1097.844482,496.418304 1091.300415,497.309326 1084.489746,498.236664 
	C1083.975586,495.124298 1083.687256,492.190948 1082.984375,489.360596 
	C1081.271484,482.464050 1076.236450,478.893341 1068.102051,478.547607 
	C1060.546631,478.226471 1055.232788,481.553101 1053.144653,488.358734 
	C1052.126831,491.676392 1051.238159,495.186768 1051.190063,498.622528 
	C1050.979858,513.599304 1051.099731,528.580811 1051.099731,543.917297 
	C1052.767944,544.080383 1054.326782,544.232849 1056.160889,544.412231 
	C1056.160889,550.211243 1056.160889,555.853394 1056.160889,561.741394 
	C1064.531616,561.741394 1072.612549,561.741394 1080.953125,561.741394 
	C1080.953125,551.917847 1080.953125,542.179565 1080.953125,532.029663 
	C1076.020264,532.029663 1071.090088,532.029663 1065.785645,532.029663 
	C1065.785645,526.554565 1065.785645,521.469727 1065.785645,515.819702 
	C1074.274902,515.819702 1082.897095,515.819702 1091.519287,515.819763 
	C1097.684814,515.819763 1103.852295,515.737610 1110.013916,515.893555 
	C1111.161255,515.922546 1112.284424,516.908142 1113.418823,517.452271 
	C1113.210205,517.999023 1113.001587,518.545715 1112.792969,519.092468 
	C1111.043945,519.092468 1109.295044,519.092468 1107.092285,519.092468 
	C1107.092285,525.372742 1107.092285,531.278320 1107.092285,537.720703 
	C1102.600708,537.720703 1098.538696,537.720703 1094.274048,537.720703 
	C1094.274048,539.874695 1094.274048,541.486084 1094.274048,543.474670 
	C1096.076904,543.668091 1097.964844,543.870605 1100.053101,544.094604 
	C1100.053101,555.777710 1100.053101,567.360352 1100.053101,579.233643 
	C1077.501953,579.233643 1055.107300,579.233643 1032.203857,579.233643 
	C1032.203857,572.997925 1032.203857,566.914673 1032.203857,560.772339 
	C1029.435059,560.578308 1027.165649,560.419250 1023.382629,560.154175 
	C1027.067627,558.325989 1029.433228,557.152405 1031.997070,555.880432 
	C1031.997070,554.253784 1031.997070,552.305298 1031.997070,549.984192 
	C1028.243652,549.984192 1024.636230,549.984192 1020.652100,549.984192 
	C1020.652100,544.877136 1020.652100,540.125183 1020.652100,534.977112 
	C1022.143921,534.721069 1023.874146,534.424133 1025.776245,534.097778 
	C1025.776245,528.656433 1025.776245,523.197021 1025.776245,517.216736 
	C1021.031616,517.216736 1016.429626,517.216736 1011.377197,517.371338 
z"/>
<path fill="#FEFEFE" opacity="1.000000" stroke="none" 
	d="
M633.526245,522.944641 
	C629.227844,522.944641 624.929443,522.944641 620.243835,522.944641 
	C620.243835,527.054443 620.243835,530.809814 620.243835,534.941345 
	C617.307556,535.085327 614.735229,535.211487 611.702393,535.360229 
	C611.596497,537.018433 611.497437,538.570068 611.367676,540.602295 
	C614.327454,540.732361 616.906921,540.845703 619.751343,540.970703 
	C619.751343,550.429749 619.751343,559.834167 619.751343,569.658691 
	C615.799561,569.658691 611.874695,569.658691 607.432495,569.658691 
	C607.432495,574.450562 607.432495,578.845032 607.432495,583.537659 
	C588.519714,583.537659 570.122314,583.537659 551.186523,583.537659 
	C551.186523,578.117737 551.186523,572.559814 551.186523,566.883057 
	C549.237549,566.631226 547.800659,566.445557 545.813904,566.188904 
	C545.813904,559.198425 545.813782,552.268738 545.813904,545.339050 
	C545.813965,539.182373 545.979675,533.020020 545.766541,526.870728 
	C545.567566,521.131958 544.966370,515.407166 544.509766,509.237915 
	C540.723755,509.237915 537.772095,509.237915 534.468262,509.021912 
	C534.094360,507.515137 534.072693,506.224335 534.007568,504.952759 
	C533.964050,504.972015 533.902405,505.044434 533.902405,505.044434 
	C543.931213,506.498779 543.932556,506.498779 543.933533,496.769379 
	C543.934875,483.984192 543.933838,471.199005 543.933838,458.122375 
	C551.942017,458.122375 559.681335,458.122375 568.109192,458.122375 
	C568.109192,479.686127 568.109192,501.402588 568.096130,523.562256 
	C568.083069,524.005371 568.050049,523.925049 567.596619,524.031250 
	C563.867920,525.386902 558.778259,521.565857 556.039062,528.070862 
	C560.844360,528.070862 564.449463,528.070862 568.073364,528.026367 
	C568.092102,527.981934 568.023315,527.914246 568.023315,527.914246 
	C568.186829,534.405273 567.932190,540.939880 568.603455,547.377991 
	C569.886902,559.689758 572.958191,562.194702 585.184448,562.161499 
	C586.336731,562.158386 587.489075,562.161133 589.191467,562.161133 
	C589.191467,554.922974 589.191467,547.867615 589.191467,540.485107 
	C591.640076,540.301575 593.567993,540.157043 595.935852,539.979553 
	C595.935852,512.789978 595.935852,485.539886 595.935852,458.061493 
	C604.106934,458.061493 611.844482,458.061493 619.948669,458.061493 
	C619.948669,478.579773 619.948669,499.001740 619.948669,520.146057 
	C624.373840,520.146057 628.454041,520.146057 633.007446,520.072083 
	C633.480713,519.998108 633.434753,519.944885 633.568787,520.319275 
	C633.614807,521.477661 633.526794,522.261658 633.461060,523.020752 
	C633.483276,522.995789 633.526245,522.944641 633.526245,522.944641 
z"/>
<path fill="#F9F9F9" opacity="1.000000" stroke="none" 
	d="
M707.101013,545.965576 
	C707.821350,545.027710 708.520813,543.294312 709.265259,543.274719 
	C716.894775,543.074280 724.531555,543.151978 732.685181,543.151978 
	C732.685181,550.221741 732.685181,556.952454 732.685181,563.908813 
	C741.619080,563.908813 750.031250,563.908813 758.707397,563.908813 
	C758.707397,553.760071 758.707397,543.666992 758.707397,532.957520 
	C752.452759,532.957520 746.087158,532.957520 739.286133,532.957520 
	C739.286133,529.266602 739.286133,526.178040 739.286133,522.051025 
	C730.887939,522.051025 722.908386,522.051025 714.928833,522.051025 
	C714.943970,521.512695 714.959106,520.974426 714.974243,520.436096 
	C718.444824,520.436096 721.915344,520.436096 725.369751,520.436096 
	C725.414001,519.583557 725.548462,519.121643 725.426636,519.039490 
	C710.703552,509.106934 709.184631,490.547882 712.697449,477.958679 
	C714.956177,469.864227 719.951782,464.059082 727.780334,461.203339 
	C738.172791,457.412384 748.915405,456.900208 759.731018,459.344849 
	C771.903137,462.096100 777.370911,470.898712 779.927551,482.155975 
	C780.581970,485.037415 780.774170,488.023865 781.250916,491.486420 
	C774.407959,491.988037 768.024780,492.455963 761.399658,492.941589 
	C761.198242,491.373474 761.119995,490.245544 760.901611,489.145355 
	C758.970581,479.416779 745.766296,474.801849 737.976013,481.120300 
	C732.117188,485.872162 733.666809,498.419373 741.066895,502.767487 
	C746.478516,505.947205 752.453247,508.152802 758.064575,511.013062 
	C762.830322,513.442383 767.435364,516.187073 772.111511,518.792236 
	C771.976196,519.273315 771.840881,519.754395 771.705505,520.235474 
	C764.763489,520.235474 757.821472,520.235474 750.879456,520.235474 
	C750.888184,520.885986 750.896912,521.536560 750.905640,522.187073 
	C763.086060,522.759277 775.280518,522.791748 787.550659,522.350220 
	C785.198181,522.453308 782.845642,522.556458 780.201355,522.672363 
	C780.201355,523.666748 780.095703,525.366516 780.216614,525.382812 
	C785.078918,526.037170 783.523621,529.753967 783.549255,532.501709 
	C783.645264,542.820679 783.587769,553.141113 783.587769,563.848755 
	C781.193176,564.057678 778.973450,564.251343 776.299927,564.484558 
	C776.299927,570.916626 776.299927,577.188416 776.299927,583.652039 
	C757.551453,583.652039 739.274536,583.652039 720.363281,583.652039 
	C720.363281,577.278748 720.363281,570.885742 720.363281,564.170959 
	C715.603577,564.170959 711.473694,564.170959 707.039673,564.170959 
	C707.039673,559.862732 707.039673,555.882874 707.036987,551.471558 
	C707.034363,551.040161 706.937134,551.051147 707.384399,551.078979 
	C710.069153,551.106750 712.306702,551.106750 714.384338,551.106750 
	C715.297485,547.672302 714.674255,546.023865 711.330200,546.255920 
	C709.885376,546.356201 708.412537,546.051453 706.992065,545.928650 
	C707.031799,545.926636 707.101013,545.965576 707.101013,545.965576 
z"/>
<path fill="#FBFAFB" opacity="1.000000" stroke="none" 
	d="
M534.075256,509.884460 
	C534.075256,522.533691 534.075256,535.182983 534.075256,547.978516 
	C532.179871,548.348572 530.623474,548.652405 528.637817,549.040039 
	C528.637817,553.553223 528.637817,557.984131 528.637817,562.841309 
	C524.936829,562.841309 521.692932,562.841309 518.255859,562.841309 
	C518.255859,567.403748 518.255859,571.522705 518.255859,576.005981 
	C519.513306,576.286621 520.880737,576.591797 522.382751,576.927002 
	C522.382751,579.157227 522.382751,581.243469 522.382751,583.587891 
	C515.724060,583.587891 509.319275,583.587891 502.566376,583.587891 
	C502.429810,581.167664 502.301086,578.886169 502.137634,575.989136 
	C497.995026,575.989136 493.794373,575.989136 489.285950,575.989136 
	C489.285950,571.446716 489.285950,567.505981 489.285950,562.970886 
	C484.271332,562.970886 479.564331,562.970886 474.396179,562.970886 
	C474.396179,557.972595 474.396179,553.542419 474.396179,548.826721 
	C471.866760,548.628113 469.778412,548.464233 467.079498,548.252319 
	C467.079498,545.067505 467.079498,541.971069 467.449463,538.339294 
	C469.408112,537.677979 470.996735,537.551941 472.724304,537.414856 
	C472.724304,535.429565 472.724304,533.743408 472.724304,531.998413 
	C470.723785,531.998413 469.022064,531.998413 467.091095,531.998413 
	C467.091095,534.207764 467.091095,536.123474 467.091095,538.039185 
	C462.828339,537.762573 458.565582,537.485901 454.040314,537.192261 
	C454.040314,535.534241 454.040314,533.946167 454.040314,531.938599 
	C457.101196,531.938599 460.189667,531.938599 463.815094,531.938599 
	C463.815094,526.280701 463.611542,521.018738 463.856689,515.777771 
	C464.398712,504.189545 464.182098,492.446259 466.096008,481.072662 
	C468.388275,467.450592 476.809418,460.246063 490.516083,458.689392 
	C497.024719,457.950256 503.865570,458.150146 510.314606,459.290009 
	C523.383850,461.600037 531.352966,471.681641 532.878174,486.688171 
	C533.465820,492.470398 533.573364,498.301392 533.901001,504.577301 
	C533.902405,505.044434 533.964050,504.972015 533.574524,505.070526 
	C530.894714,506.475250 525.724915,502.589813 525.899353,508.926361 
	C528.873474,509.274872 531.474365,509.579651 534.075256,509.884460 
M485.470886,545.016785 
	C486.187134,551.839233 490.636475,547.303833 493.481415,548.266113 
	C493.723969,546.052124 493.899841,544.446716 494.113678,542.494751 
	C500.051025,542.494751 505.824310,542.494751 512.487244,542.494751 
	C511.959930,523.352722 511.679962,504.587006 510.801910,485.849304 
	C510.482208,479.026306 506.301086,476.263550 498.700623,476.172394 
	C491.243683,476.082916 487.896118,478.427979 486.913483,485.421967 
	C485.999268,491.928772 485.776825,498.532776 485.231934,505.316376 
	C483.989441,505.385132 482.779144,505.230988 481.722504,505.564117 
	C480.257050,506.026215 478.906952,506.854401 477.507446,507.525787 
	C478.829041,508.070770 480.111420,508.774902 481.483978,509.113281 
	C482.705627,509.414490 484.027130,509.310699 485.145355,509.376312 
	C485.410400,510.042145 485.633942,510.340851 485.632599,510.638550 
	C485.583008,521.790527 485.512695,532.942383 485.470886,545.016785 
z"/>
<path fill="#F9F9F9" opacity="1.000000" stroke="none" 
	d="
M633.434753,519.944885 
	C633.434753,519.944885 633.480713,519.998108 633.504395,520.024231 
	C633.528137,499.757446 633.528137,479.464569 633.528137,458.821411 
	C653.966064,458.821411 674.206238,458.821411 694.791992,458.821411 
	C694.791992,465.425964 694.791992,472.146973 694.791992,479.344543 
	C682.771545,479.344543 670.696289,479.344543 658.351624,479.344543 
	C658.351624,488.557251 658.351624,497.299500 658.351624,506.419128 
	C669.138000,506.419128 679.742126,506.419128 690.493225,506.419128 
	C690.952942,513.251343 691.388245,519.720581 691.857971,526.701660 
	C682.453857,526.701660 673.204468,526.701660 663.482178,526.701660 
	C663.482178,535.414917 663.482178,543.644470 663.482178,552.186035 
	C660.639343,552.457153 658.236328,552.686340 655.833252,552.915527 
	C655.831726,553.485962 655.830200,554.056396 655.828674,554.626831 
	C658.100281,554.815308 660.371826,555.003784 663.032532,555.224548 
	C663.232117,557.519348 663.438293,559.890442 663.696350,562.857483 
	C674.410950,562.857483 684.946350,562.857483 696.710754,562.857483 
	C690.717896,568.520569 694.146362,574.806763 692.649902,581.012329 
	C684.309937,581.012329 675.700989,580.677856 667.135864,581.145508 
	C662.457214,581.400940 657.267029,578.797058 652.961609,583.594421 
	C651.836060,584.848572 648.175537,583.838806 645.679138,583.848938 
	C642.704529,583.861084 639.729797,583.851807 636.096680,583.851807 
	C636.096680,578.442566 636.096680,573.349060 636.096680,568.255554 
	C636.096680,561.260315 636.099792,554.265015 636.095886,547.269775 
	C636.091492,539.369751 631.518005,531.994995 633.464966,523.410767 
	C633.526245,522.944641 633.483276,522.995789 633.953064,522.994141 
	C637.592346,522.992554 640.761841,522.992554 643.931335,522.992554 
	C643.985596,522.252380 644.039917,521.512146 644.094177,520.771973 
	C640.541016,520.496277 636.987915,520.220581 633.434753,519.944885 
z"/>
<path fill="#FCFCFC" opacity="1.000000" stroke="none" 
	d="
M320.166687,564.104187 
	C320.467865,590.116150 292.979706,607.613525 269.152588,594.322021 
	C255.013016,586.434448 248.395172,567.448914 254.741241,552.105713 
	C261.344635,536.140381 279.095673,527.368469 295.033539,532.194702 
	C310.021851,536.733337 318.837402,547.765686 320.166687,564.104187 
z"/>
<path fill="#FBFBFB" opacity="1.000000" stroke="none" 
	d="
M390.872559,544.801392 
	C384.601471,556.273499 373.840942,561.692383 362.249603,559.503784 
	C351.414307,557.457947 343.297882,548.524963 341.637665,536.818115 
	C340.093994,525.933044 346.746246,514.099976 356.632233,510.145813 
	C368.587769,505.363800 381.127716,508.723389 388.237762,518.548218 
	C394.115845,526.670654 394.426788,535.350403 390.872559,544.801392 
z"/>
<path fill="#FDFCFD" opacity="1.000000" stroke="none" 
	d="
M331.074951,444.713440 
	C343.470856,450.747253 349.370636,461.992706 346.864227,474.269745 
	C344.566162,485.526154 334.469727,494.200043 322.853943,494.897003 
	C311.106964,495.601807 300.081909,488.048981 296.565216,476.646454 
	C293.492279,466.682617 295.726654,457.719421 303.046844,450.455902 
	C310.852173,442.710938 320.307495,440.978973 331.074951,444.713440 
z"/>
<path fill="#FAFAFA" opacity="1.000000" stroke="none" 
	d="
M359.349487,445.394470 
	C360.980072,443.538269 362.384460,441.956299 364.151733,439.965607 
	C382.677368,458.888092 393.066376,481.064026 395.109406,507.162811 
	C381.843414,510.021393 364.207642,501.028442 357.377625,488.416412 
	C349.431854,473.744080 350.262329,459.579681 359.349487,445.394470 
z"/>
<path fill="#FDFCFD" opacity="1.000000" stroke="none" 
	d="
M260.687683,462.380798 
	C249.942474,453.274414 247.883011,440.565186 255.222443,430.226715 
	C262.002686,420.675903 275.322906,417.825195 285.453033,423.756866 
	C296.421173,430.179291 300.155823,444.027649 293.874512,454.984100 
	C287.233704,466.567596 273.389771,469.771851 260.687683,462.380798 
z"/>
<path fill="#FCFCFC" opacity="1.000000" stroke="none" 
	d="
M241.231171,500.672119 
	C245.811737,486.665894 258.326111,480.161560 270.670807,484.999817 
	C282.406708,489.599457 287.812622,503.388580 282.369507,514.839905 
	C277.973877,524.087402 267.926910,529.000366 257.861969,526.823914 
	C247.959000,524.682617 240.861145,515.844360 240.837311,505.564728 
	C240.833847,504.073395 241.034836,502.581604 241.231171,500.672119 
z"/>
<path fill="#FCFCFC" opacity="1.000000" stroke="none" 
	d="
M249.964294,583.638794 
	C248.368179,587.688477 247.417206,591.768188 245.110596,594.824768 
	C239.022949,602.891724 234.842712,603.448059 227.291458,596.951416 
	C220.883087,591.438110 215.196808,585.090759 209.106186,579.200073 
	C206.778290,576.948608 207.025162,574.700928 208.263855,572.042908 
	C212.730499,562.458252 222.980087,557.538635 233.603043,560.005798 
	C243.829086,562.380676 250.091934,571.245300 249.964294,583.638794 
z"/>
<path fill="#FCFCFC" opacity="1.000000" stroke="none" 
	d="
M360.739441,580.597046 
	C356.971619,590.214661 349.394806,595.493591 340.900421,594.714111 
	C332.169250,593.912903 325.369019,587.938171 323.434235,579.368225 
	C321.038605,568.757080 328.465851,558.326721 339.660797,556.580688 
	C350.104340,554.951782 360.198700,562.737122 361.118042,573.271545 
	C361.318115,575.563782 360.955353,577.905151 360.739441,580.597046 
z"/>
<path fill="#FCFCFC" opacity="1.000000" stroke="none" 
	d="
M227.561356,483.579285 
	C220.072510,477.384857 217.832275,469.736267 221.040344,462.078094 
	C223.934158,455.170135 231.399918,450.581421 238.578964,451.298218 
	C246.658813,452.104980 252.978836,457.611511 254.536758,465.549652 
	C255.914566,472.569946 253.572296,478.510284 247.976517,482.778870 
	C241.655624,487.600616 234.776505,487.683777 227.561356,483.579285 
z"/>
<path fill="#FCFCFC" opacity="1.000000" stroke="none" 
	d="
M314.283875,526.404785 
	C307.112152,530.508789 300.270081,530.475403 293.901306,525.761353 
	C288.028931,521.414734 285.778381,515.201782 287.275635,508.135742 
	C288.816528,500.863678 293.567780,496.249390 300.892456,494.511658 
	C308.379211,492.735504 316.472961,496.598022 320.123077,503.631012 
	C324.220337,511.525421 322.213531,519.691467 314.283875,526.404785 
z"/>
<path fill="#FCFCFC" opacity="1.000000" stroke="none" 
	d="
M223.538147,534.637451 
	C227.188324,543.806702 225.637360,551.400146 219.324295,556.631531 
	C213.632950,561.347717 205.491043,562.047302 199.302933,558.351929 
	C194.304794,555.367126 189.942505,545.773499 190.883682,539.836182 
	C191.922150,533.285095 197.304398,527.465210 203.671783,526.008362 
	C211.743301,524.161438 218.275070,526.925598 223.538147,534.637451 
z"/>
<path fill="#FBFBFB" opacity="1.000000" stroke="none" 
	d="
M329.003540,420.400085 
	C328.980316,429.719391 324.819580,436.267029 317.573181,438.838104 
	C310.554047,441.328552 302.953613,439.288147 298.124939,433.616913 
	C293.477386,428.158508 292.657349,420.328308 295.920898,414.023895 
	C297.276489,411.405243 298.822418,409.904694 302.122284,410.704498 
	C309.680969,412.536469 317.353638,413.915039 324.866547,415.905945 
	C326.485870,416.335022 327.626343,418.571167 329.003540,420.400085 
z"/>
<path fill="#FBFBFB" opacity="1.000000" stroke="none" 
	d="
M201.064178,494.929718 
	C197.161499,494.076782 193.258804,493.223846 187.790268,492.028687 
	C193.017929,479.712189 197.874496,468.269989 202.683990,456.938721 
	C212.180756,460.024933 217.028732,466.219635 217.367218,474.447083 
	C217.722000,483.070282 213.459946,489.403198 204.626312,493.672363 
	C204.575333,494.041748 204.604660,493.940155 204.172989,493.843872 
	C202.798340,494.176758 201.855377,494.605927 200.960327,495.023132 
	C201.008255,495.011169 201.064178,494.929718 201.064178,494.929718 
z"/>
<path fill="#F9F9F9" opacity="1.000000" stroke="none" 
	d="
M204.604675,493.940186 
	C204.604660,493.940155 204.575333,494.041748 204.521545,494.039124 
	C205.363770,494.278931 206.246811,494.653168 207.157883,494.743011 
	C214.270813,495.444305 219.380096,500.343933 219.921432,507.051941 
	C220.430939,513.365479 216.327072,519.305725 210.260590,521.035828 
	C203.893997,522.851501 197.219376,519.913391 194.346329,514.030396 
	C191.373993,507.944061 193.236206,501.116211 199.036392,496.922607 
	C199.704437,496.439575 200.457336,496.073944 201.117523,495.291809 
	C201.064178,494.929718 201.008255,495.011169 201.360260,495.212891 
	C202.676392,494.923126 203.640533,494.431641 204.604675,493.940186 
z"/>
<path fill="#F8F8F8" opacity="1.000000" stroke="none" 
	d="
M326.108368,525.233826 
	C334.995697,526.568481 339.750885,531.891235 338.913971,539.102234 
	C338.118622,545.955322 332.199005,550.679382 325.222382,550.028625 
	C319.210083,549.467834 314.475311,544.551025 314.093628,538.471985 
	C313.676849,531.834106 317.857391,527.074707 326.108368,525.233826 
z"/>
<path fill="#F8F8F8" opacity="1.000000" stroke="none" 
	d="
M306.111145,615.594238 
	C305.777191,616.620056 305.447327,617.796143 304.967285,617.861023 
	C293.726166,619.380981 282.538513,619.015930 271.376801,616.857544 
	C273.483063,608.022827 279.707001,602.485291 287.813629,602.040710 
	C296.225372,601.579285 302.749237,606.297791 306.111145,615.594238 
z"/>
<path fill="#F9F9F9" opacity="1.000000" stroke="none" 
	d="
M322.412537,590.746399 
	C329.519348,593.027893 332.705383,597.472717 331.953064,603.577820 
	C331.281311,609.029053 326.773865,613.235107 321.239929,613.574585 
	C315.625671,613.918945 310.577454,610.027832 309.320923,604.371216 
	C307.651978,596.858093 314.347992,589.322021 322.412537,590.746399 
z"/>
<path fill="#F5F5F6" opacity="1.000000" stroke="none" 
	d="
M221.849503,446.014679 
	C219.260269,445.327637 217.073334,444.651886 214.289871,443.791870 
	C223.789551,433.760864 233.945709,425.832397 246.226990,420.552307 
	C249.632004,433.286804 237.524368,448.597443 221.849503,446.014679 
z"/>
<path fill="#FAFAFA" opacity="1.000000" stroke="none" 
	d="
M246.851196,553.939697 
	C242.004227,557.062866 237.378662,557.180725 233.045715,553.956177 
	C229.106979,551.025085 227.534683,546.962830 228.786789,542.054993 
	C230.031525,537.176147 233.322220,534.419739 238.132446,533.447510 
	C242.565277,532.551636 247.592316,535.088318 249.928101,539.230713 
	C252.519577,543.826660 251.547089,548.906555 246.851196,553.939697 
z"/>
<path fill="#FAFAFA" opacity="1.000000" stroke="none" 
	d="
M342.449219,423.595459 
	C348.637482,427.784943 354.518219,431.770264 360.574646,435.874634 
	C357.794159,441.752960 353.406982,444.227112 347.792419,444.384247 
	C342.202209,444.540649 337.777588,441.954468 335.174377,437.002380 
	C332.292755,431.520721 332.855896,426.154572 337.000885,420.829010 
	C338.721802,421.686768 340.431732,422.539032 342.449219,423.595459 
z"/>
<path fill="#F8F8F8" opacity="1.000000" stroke="none" 
	d="
M220.513016,516.934753 
	C223.905609,511.213501 228.000366,509.178955 232.873138,510.500977 
	C237.504150,511.757446 240.806824,516.105347 240.690369,520.792358 
	C240.577545,525.333191 237.379166,529.453430 232.922729,530.626404 
	C224.872177,532.745239 217.684509,525.056824 220.513016,516.934753 
z"/>
<path fill="#F5F5F6" opacity="1.000000" stroke="none" 
	d="
M284.668640,467.092041 
	C290.188110,468.366669 293.266663,471.575439 293.681671,476.820251 
	C294.009827,480.966644 292.098511,484.271759 288.478455,486.366486 
	C284.645477,488.584442 280.766418,488.351349 277.233032,485.728333 
	C273.530151,482.979462 272.196686,479.172180 273.346313,474.695099 
	C274.580109,469.890228 278.165222,467.470703 284.668640,467.092041 
z"/>
<path fill="#F8F8F8" opacity="1.000000" stroke="none" 
	d="
M348.402008,511.331238 
	C344.374451,516.758911 339.517853,518.789307 335.090607,516.645691 
	C330.960327,514.645935 328.374817,511.355743 328.861816,506.350983 
	C329.433624,500.474854 333.832397,496.598511 339.593201,496.967682 
	C345.470032,497.344269 349.531067,502.070984 349.063049,508.046783 
	C348.985748,509.033295 348.702362,510.003723 348.402008,511.331238 
z"/>
<path fill="#F9F9F9" opacity="1.000000" stroke="none" 
	d="
M264.542236,596.429382 
	C268.417938,602.016602 267.977814,607.867798 263.698273,611.338196 
	C260.276733,614.112854 252.950592,613.643616 249.209778,609.832764 
	C246.161392,606.727295 245.977448,602.684387 247.892929,598.768005 
	C250.119171,594.216309 255.250977,592.074463 260.048981,593.725342 
	C261.561707,594.245789 262.878143,595.336853 264.542236,596.429382 
z"/>
<path fill="#F5F5F6" opacity="1.000000" stroke="none" 
	d="
M225.067688,495.294128 
	C227.359360,493.326965 229.462128,490.870758 231.888992,490.492218 
	C233.340408,490.265778 236.023956,492.978790 236.867386,494.927307 
	C238.283325,498.198425 235.755936,501.638733 232.267761,502.249786 
	C228.234207,502.956451 225.805405,500.756134 225.067688,495.294128 
z"/>
<path fill="#D6D4D7" opacity="1.000000" stroke="none" 
	d="
M1060.049072,581.048157 
	C1065.655029,581.048157 1070.771484,581.048157 1075.887817,581.048157 
	C1075.870850,581.811096 1075.853882,582.573975 1075.836792,583.336914 
	C1067.395874,584.723206 1058.828613,583.545776 1050.291870,583.994995 
	C1050.591675,581.048157 1050.591675,581.048157 1060.049072,581.048157 
z"/>
<path fill="#F5F5F6" opacity="1.000000" stroke="none" 
	d="
M568.049194,524.032593 
	C571.652161,524.086243 575.306702,523.918091 578.916199,524.245728 
	C580.156738,524.358337 581.284851,525.709290 582.464355,526.494446 
	C582.222900,527.000366 581.981506,527.506226 581.740051,528.012146 
	C577.472595,528.012146 573.205139,528.012146 568.480469,527.963196 
	C568.023315,527.914246 568.092102,527.981934 568.095337,527.612183 
	C568.082336,526.136597 568.066223,525.030823 568.050049,523.925049 
	C568.050049,523.925049 568.083069,524.005371 568.049194,524.032593 
z"/>
<path fill="#D6D4D7" opacity="1.000000" stroke="none" 
	d="
M836.202515,568.846008 
	C832.955627,568.964661 830.170166,568.964661 827.384644,568.964661 
	C827.345581,568.464355 827.306580,567.964050 827.267517,567.463745 
	C829.964783,567.055664 832.662109,566.647583 835.743164,566.098694 
	C839.726685,565.957886 843.326355,565.957886 846.926086,565.957886 
	C844.141052,570.124084 840.077332,567.960571 836.202515,568.846008 
z"/>
<path fill="#4B424D" opacity="1.000000" stroke="none" 
	d="
M534.105896,509.859497 
	C531.474365,509.579651 528.873474,509.274872 525.899353,508.926361 
	C525.724915,502.589813 530.894714,506.475250 533.618042,505.051270 
	C534.072693,506.224335 534.094360,507.515137 534.098389,509.292297 
	C534.080688,509.778656 534.136536,509.834534 534.105896,509.859497 
z"/>
<path fill="#FEFEFE" opacity="1.000000" stroke="none" 
	d="
M707.070190,551.006836 
	C704.486328,550.973572 701.866699,550.973572 699.351379,550.973572 
	C697.886536,547.562744 698.926208,546.193604 702.362183,546.469604 
	C703.669678,546.574646 704.996521,546.439941 706.707764,546.190063 
	C707.101013,545.965576 707.031799,545.926636 706.901855,546.348877 
	C706.826904,548.197815 706.882019,549.624512 706.937134,551.051147 
	C706.937134,551.051147 707.034363,551.040161 707.070190,551.006836 
z"/>
<path fill="#D6D4D7" opacity="1.000000" stroke="none" 
	d="
M835.255737,577.887390 
	C835.083740,577.594543 835.235413,577.370544 835.611023,577.078369 
	C835.703979,577.294556 835.618835,577.609924 835.255737,577.887390 
z"/>
<path fill="#170C1A" opacity="1.000000" stroke="none" 
	d="
M954.899963,558.812500 
	C954.898499,544.855408 954.898499,531.378540 954.898499,518.023376 
	C952.586853,514.877136 946.120483,520.635315 945.485046,513.121338 
	C948.705872,513.121338 951.618652,513.121338 954.534241,513.121338 
	C955.026245,505.593872 955.253662,498.484863 956.005920,491.431763 
	C957.226196,479.989960 969.337708,474.153534 978.914795,480.624969 
	C981.327332,482.255157 983.396545,485.826843 983.783264,488.749786 
	C984.892456,497.133331 985.350830,505.635681 985.524780,514.102417 
	C985.774170,526.242920 985.545105,538.393250 985.521301,550.539429 
	C985.518127,552.164490 985.520874,553.789490 985.520874,555.658447 
	C982.244202,555.658447 979.457520,555.658447 976.233765,555.658447 
	C976.062195,557.955872 975.906921,560.034058 975.698486,562.825439 
	C969.517090,562.825439 963.256287,562.944519 957.012817,562.669678 
	C956.260986,562.636597 955.602966,560.470276 954.899963,558.812500 
z"/>
<path fill="#150A18" opacity="1.000000" stroke="none" 
	d="
M940.012695,547.898926 
	C938.189758,549.128845 936.369629,549.889038 933.897705,550.921509 
	C933.897705,547.740845 933.897705,545.689453 933.897705,543.314636 
	C935.590454,543.314636 937.487244,543.314636 939.778809,543.314636 
	C939.852600,544.597412 939.934021,546.013367 940.012695,547.898926 
z"/>
<path fill="#170C1A" opacity="1.000000" stroke="none" 
	d="
M1010.603271,512.960205 
	C1011.039734,514.176636 1011.009521,515.422485 1011.024902,517.133911 
	C1008.934265,517.453857 1006.732910,517.572449 1004.685303,517.067566 
	C1003.367126,516.742615 1002.274902,515.501404 1001.081421,514.670837 
	C1001.323486,514.110413 1001.565491,513.549988 1001.807495,512.989563 
	C1004.583862,512.989563 1007.360168,512.989563 1010.603271,512.960205 
z"/>
<path fill="#180D1B" opacity="1.000000" stroke="none" 
	d="
M567.596619,524.031250 
	C568.066223,525.030823 568.082336,526.136597 568.076538,527.656616 
	C564.449463,528.070862 560.844360,528.070862 556.039062,528.070862 
	C558.778259,521.565857 563.867920,525.386902 567.596619,524.031250 
z"/>
<path fill="#180D1B" opacity="1.000000" stroke="none" 
	d="
M633.568787,520.319275 
	C636.987915,520.220581 640.541016,520.496277 644.094177,520.771973 
	C644.039917,521.512146 643.985596,522.252380 643.931335,522.992554 
	C640.761841,522.992554 637.592346,522.992554 633.930847,523.019104 
	C633.526794,522.261658 633.614807,521.477661 633.568787,520.319275 
z"/>
<path fill="#4B424D" opacity="1.000000" stroke="none" 
	d="
M707.384399,551.078979 
	C706.882019,549.624512 706.826904,548.197815 706.862122,546.350952 
	C708.412537,546.051453 709.885376,546.356201 711.330200,546.255920 
	C714.674255,546.023865 715.297485,547.672302 714.384338,551.106750 
	C712.306702,551.106750 710.069153,551.106750 707.384399,551.078979 
z"/>
<path fill="#180D1B" opacity="1.000000" stroke="none" 
	d="
M485.458008,544.555542 
	C485.512695,532.942383 485.583008,521.790527 485.632599,510.638550 
	C485.633942,510.340851 485.410400,510.042145 485.145355,509.376312 
	C484.027130,509.310699 482.705627,509.414490 481.483978,509.113281 
	C480.111420,508.774902 478.829041,508.070770 477.507446,507.525818 
	C478.906952,506.854401 480.257050,506.026215 481.722504,505.564117 
	C482.779144,505.230988 483.989441,505.385132 485.231934,505.316376 
	C485.776825,498.532776 485.999268,491.928772 486.913483,485.421967 
	C487.896118,478.427979 491.243683,476.082916 498.700623,476.172394 
	C506.301086,476.263550 510.482208,479.026306 510.801910,485.849304 
	C511.679962,504.587006 511.959930,523.352722 512.487244,542.494751 
	C505.824310,542.494751 500.051025,542.494751 494.113678,542.494751 
	C493.899841,544.446716 493.723969,546.052124 493.481415,548.266113 
	C490.636475,547.303833 486.187134,551.839233 485.458008,544.555542 
z"/>
<path fill="#4B424D" opacity="1.000000" stroke="none" 
	d="
M467.074768,538.005859 
	C467.091095,536.123474 467.091095,534.207764 467.091095,531.998413 
	C469.022064,531.998413 470.723785,531.998413 472.724304,531.998413 
	C472.724304,533.743408 472.724304,535.429565 472.724304,537.414856 
	C470.996735,537.551941 469.408112,537.677979 467.402405,537.882324 
	C466.985321,537.960632 467.058441,537.972595 467.074768,538.005859 
z"/>
<path fill="#150A18" opacity="1.000000" stroke="none" 
	d="
M204.173004,493.843903 
	C203.640533,494.431641 202.676392,494.923126 201.312332,495.224854 
	C201.855377,494.605927 202.798340,494.176758 204.173004,493.843903 
z"/>
</svg>