<svg id="svg" version="1.1" xmlns="http://www.w3.org/2000/svg" xmlns:xlink="http://www.w3.org/1999/xlink" width="400" height="400" viewBox="0, 0, 400,400"><g id="svgg"><path id="path0" d="M288.239 65.900 C 281.885 75.703,270.702 82.494,247.852 90.424 C 210.792 103.286,196.737 113.010,185.977 133.234 C 179.739 144.958,177.561 154.090,177.547 168.579 L 177.539 177.196 172.656 173.978 C 155.632 162.759,138.017 157.812,115.092 157.813 C 102.427 157.813,97.523 158.705,95.597 161.362 C 94.259 163.208,94.132 167.420,94.175 208.789 C 94.198 231.133,94.098 256.006,93.952 264.063 C 93.605 283.282,93.115 282.422,104.412 282.422 C 114.487 282.422,123.210 283.526,133.877 286.151 C 156.413 291.696,169.227 298.384,185.417 313.049 C 195.023 321.751,204.590 321.726,214.268 312.974 C 236.121 293.215,264.174 282.845,296.875 282.439 C 302.278 282.372,303.812 281.917,305.248 279.952 L 306.055 278.849 305.930 221.189 C 305.798 160.006,305.878 162.526,304.025 160.849 C 301.930 158.954,295.556 158.239,286.811 158.919 C 279.148 159.515,278.211 160.024,274.863 165.409 C 271.716 170.470,271.713 170.086,274.901 169.760 C 281.480 169.086,287.916 168.788,291.070 169.012 L 294.505 169.256 294.616 218.124 C 294.677 245.001,294.708 267.040,294.686 267.098 C 294.664 267.155,293.434 266.897,291.952 266.523 C 288.138 265.560,272.514 265.566,265.820 266.532 C 241.344 270.064,223.669 278.276,206.769 293.967 C 204.584 295.996,202.669 297.656,202.515 297.656 C 202.079 297.656,202.640 235.542,203.120 230.664 C 205.234 209.172,214.694 194.980,234.647 183.368 C 252.301 173.094,255.111 171.145,261.328 164.857 C 267.851 158.260,273.544 148.519,275.590 140.451 C 276.747 135.891,276.765 135.638,275.879 136.417 C 272.998 138.950,262.847 141.420,250.586 142.571 C 248.223 142.793,245.542 143.058,244.629 143.159 C 243.678 143.265,242.969 143.181,242.969 142.961 C 242.969 142.751,243.235 142.578,243.561 142.578 C 247.930 142.578,264.837 134.669,272.266 129.151 C 292.539 114.091,302.430 82.856,292.255 66.028 C 290.292 62.781,290.260 62.780,288.239 65.900 M238.590 121.856 C 215.125 137.705,201.454 158.691,195.573 187.891 C 191.948 205.891,191.156 218.004,190.780 261.183 L 190.512 292.093 186.238 288.398 C 169.350 273.800,145.209 265.610,119.141 265.636 C 115.670 265.640,107.915 266.464,106.187 267.012 C 105.365 267.273,105.170 170.479,105.990 169.661 C 107.240 168.416,127.184 169.765,136.452 171.722 C 158.272 176.329,176.345 189.371,183.423 205.618 C 184.896 209.001,184.995 208.924,185.303 204.155 C 187.811 165.357,204.263 137.825,233.997 122.666 C 242.453 118.354,244.240 118.039,238.590 121.856 " stroke="none" fill="#050d0c" fill-rule="evenodd"></path><path id="path1" d="M0.000 200.000 L 0.000 400.000 200.000 400.000 L 400.000 400.000 400.000 200.000 L 400.000 0.000 200.000 0.000 L 0.000 0.000 0.000 200.000 M292.064 65.361 C 297.294 73.087,297.566 88.105,292.721 101.659 C 286.865 118.041,274.819 130.343,257.218 137.916 C 252.540 139.929,244.986 142.578,243.923 142.578 C 243.613 142.578,243.359 142.719,243.359 142.891 C 243.359 143.684,263.174 140.972,268.834 139.404 C 271.900 138.554,275.427 136.893,275.903 136.075 C 277.338 133.610,276.273 139.825,274.416 144.760 C 269.274 158.419,259.530 169.021,243.555 178.338 C 240.332 180.217,236.113 182.678,234.180 183.806 C 216.647 194.031,206.365 208.036,203.936 225.000 C 202.966 231.772,202.736 240.035,202.735 268.124 L 202.734 297.771 206.348 294.290 C 222.286 278.936,240.274 270.348,264.453 266.548 C 270.618 265.579,289.351 265.521,292.488 266.461 L 294.547 267.077 294.441 218.207 L 294.336 169.336 290.234 169.203 C 287.979 169.129,283.095 169.285,279.383 169.549 C 275.671 169.813,272.532 169.928,272.409 169.805 C 272.285 169.681,273.115 168.031,274.252 166.138 C 278.369 159.287,279.468 158.817,291.406 158.800 C 307.174 158.778,306.419 157.383,306.074 185.917 C 305.937 197.208,305.979 222.266,306.167 241.602 C 306.552 281.310,306.648 279.677,303.821 281.549 C 302.208 282.616,302.197 282.617,292.998 282.859 C 280.867 283.177,276.074 283.915,261.370 287.728 C 242.621 292.589,228.620 300.040,215.234 312.279 C 204.403 322.183,195.187 322.309,184.806 312.695 C 170.123 299.097,156.472 291.947,134.961 286.587 C 123.616 283.760,119.275 283.170,107.617 282.869 C 94.867 282.540,93.523 281.886,93.610 276.055 C 93.633 274.508,93.772 249.072,93.920 219.531 C 94.086 186.186,94.337 165.044,94.582 163.773 C 95.409 159.474,97.797 158.431,108.282 157.786 C 132.309 156.310,154.096 161.659,172.033 173.439 L 177.464 177.006 177.218 173.529 C 175.706 152.239,183.899 130.286,198.686 116.005 C 209.645 105.421,220.200 99.909,248.242 90.128 C 270.339 82.420,280.997 76.000,287.793 66.301 C 290.209 62.853,290.345 62.823,292.064 65.361 M237.891 120.855 C 206.072 135.189,189.426 161.467,185.481 203.590 C 185.223 206.348,184.880 208.471,184.720 208.306 C 184.560 208.142,183.545 206.250,182.465 204.102 C 171.681 182.652,147.778 170.375,115.375 169.643 L 105.945 169.430 105.783 218.016 C 105.694 244.738,105.655 266.655,105.695 266.719 C 105.736 266.784,107.767 266.542,110.209 266.181 C 135.386 262.463,168.767 272.371,187.098 289.004 C 188.791 290.540,190.261 291.797,190.364 291.797 C 190.468 291.797,190.575 279.888,190.601 265.332 C 190.674 225.575,191.435 211.058,194.364 193.555 C 199.758 161.330,213.747 138.455,238.086 122.065 C 243.529 118.400,243.516 118.321,237.891 120.855 " stroke="none" fill="#f4eee4" fill-rule="evenodd"></path><path id="path2" d="M117.094 157.698 C 117.580 157.792,118.283 157.788,118.657 157.690 C 119.030 157.592,118.633 157.516,117.773 157.520 C 116.914 157.525,116.608 157.605,117.094 157.698 M177.078 169.922 C 177.078 171.318,177.149 171.890,177.236 171.191 C 177.322 170.493,177.322 169.351,177.236 168.652 C 177.149 167.954,177.078 168.525,177.078 169.922 M110.831 169.423 C 111.525 169.509,112.755 169.510,113.566 169.426 C 114.376 169.341,113.809 169.271,112.305 169.269 C 110.801 169.267,110.138 169.336,110.831 169.423 M305.993 181.055 C 305.995 182.773,306.063 183.428,306.146 182.509 C 306.228 181.590,306.227 180.184,306.143 179.384 C 306.059 178.584,305.992 179.336,305.993 181.055 M105.647 197.266 C 105.647 205.967,105.698 209.526,105.761 205.176 C 105.824 200.825,105.824 193.706,105.761 189.355 C 105.698 185.005,105.647 188.564,105.647 197.266 M294.277 194.141 C 294.277 195.967,294.344 196.714,294.427 195.801 C 294.509 194.888,294.509 193.394,294.427 192.480 C 294.344 191.567,294.277 192.314,294.277 194.141 M306.002 226.367 C 306.003 228.516,306.069 229.345,306.148 228.210 C 306.227 227.074,306.226 225.317,306.146 224.303 C 306.066 223.290,306.001 224.219,306.002 226.367 M190.731 236.719 C 190.731 237.686,190.808 238.081,190.901 237.598 C 190.994 237.114,190.994 236.323,190.901 235.840 C 190.808 235.356,190.731 235.752,190.731 236.719 M105.580 251.367 C 105.583 252.441,105.659 252.834,105.749 252.241 C 105.839 251.647,105.836 250.768,105.744 250.288 C 105.651 249.807,105.578 250.293,105.580 251.367 M93.875 255.078 C 93.875 256.475,93.946 257.046,94.033 256.348 C 94.119 255.649,94.119 254.507,94.033 253.809 C 93.946 253.110,93.875 253.682,93.875 255.078 M202.511 267.578 C 202.511 272.412,202.567 274.390,202.635 271.973 C 202.704 269.556,202.704 265.601,202.635 263.184 C 202.567 260.767,202.511 262.744,202.511 267.578 M93.450 274.609 C 93.450 275.361,93.530 275.669,93.629 275.293 C 93.727 274.917,93.727 274.302,93.629 273.926 C 93.530 273.550,93.450 273.857,93.450 274.609 M190.325 290.234 C 190.325 290.986,190.405 291.294,190.504 290.918 C 190.602 290.542,190.602 289.927,190.504 289.551 C 190.405 289.175,190.325 289.482,190.325 290.234 " stroke="none" fill="#9c9b94" fill-rule="evenodd"></path><path id="path3" d="M210.718 139.160 L 209.570 140.430 210.840 139.282 C 211.538 138.651,212.109 138.080,212.109 138.013 C 212.109 137.711,211.787 137.977,210.718 139.160 M305.984 167.969 C 305.984 169.365,306.055 169.937,306.142 169.238 C 306.229 168.540,306.229 167.397,306.142 166.699 C 306.055 166.001,305.984 166.572,305.984 167.969 M286.628 169.033 C 287.330 169.120,288.385 169.118,288.972 169.029 C 289.559 168.940,288.984 168.869,287.695 168.871 C 286.406 168.873,285.926 168.946,286.628 169.033 M305.950 175.391 C 305.950 176.143,306.030 176.450,306.129 176.074 C 306.227 175.698,306.227 175.083,306.129 174.707 C 306.030 174.331,305.950 174.639,305.950 175.391 M105.575 178.516 C 105.575 179.482,105.651 179.878,105.744 179.395 C 105.838 178.911,105.838 178.120,105.744 177.637 C 105.651 177.153,105.575 177.549,105.575 178.516 M105.646 233.008 C 105.646 240.957,105.698 244.154,105.761 240.111 C 105.825 236.069,105.825 229.565,105.761 225.658 C 105.697 221.751,105.645 225.059,105.646 233.008 M94.285 226.953 C 94.285 229.209,94.350 230.132,94.429 229.004 C 94.508 227.876,94.508 226.030,94.429 224.902 C 94.350 223.774,94.285 224.697,94.285 226.953 M190.792 249.023 C 190.793 253.965,190.849 255.932,190.917 253.396 C 190.985 250.859,190.985 246.816,190.916 244.412 C 190.848 242.007,190.792 244.082,190.792 249.023 M306.020 248.047 C 306.020 251.807,306.079 253.345,306.150 251.465 C 306.222 249.585,306.222 246.509,306.150 244.629 C 306.079 242.749,306.020 244.287,306.020 248.047 M202.485 251.172 C 202.485 253.213,202.550 254.048,202.631 253.027 C 202.711 252.007,202.711 250.337,202.631 249.316 C 202.550 248.296,202.485 249.131,202.485 251.172 M93.849 260.742 C 93.853 261.602,93.933 261.907,94.026 261.421 C 94.120 260.935,94.116 260.232,94.018 259.859 C 93.921 259.485,93.844 259.883,93.849 260.742 M294.643 265.430 C 294.646 266.504,294.722 266.897,294.812 266.303 C 294.901 265.709,294.899 264.831,294.806 264.350 C 294.714 263.870,294.640 264.355,294.643 265.430 M306.349 274.414 C 306.353 275.273,306.433 275.579,306.526 275.093 C 306.620 274.607,306.616 273.904,306.518 273.531 C 306.421 273.157,306.344 273.555,306.349 274.414 M202.511 288.672 C 202.511 293.506,202.567 295.483,202.635 293.066 C 202.704 290.649,202.704 286.694,202.635 284.277 C 202.567 281.860,202.511 283.838,202.511 288.672 M106.947 282.710 C 108.082 282.789,109.840 282.789,110.853 282.708 C 111.866 282.628,110.938 282.564,108.789 282.565 C 106.641 282.566,105.812 282.631,106.947 282.710 M290.527 282.698 C 291.011 282.791,291.802 282.791,292.285 282.698 C 292.769 282.604,292.373 282.528,291.406 282.528 C 290.439 282.528,290.044 282.604,290.527 282.698 M295.605 282.708 C 296.519 282.790,298.013 282.790,298.926 282.708 C 299.839 282.626,299.092 282.558,297.266 282.558 C 295.439 282.558,294.692 282.626,295.605 282.708 " stroke="none" fill="#72746d" fill-rule="evenodd"></path><path id="path4" d="M113.965 157.698 C 114.448 157.791,115.239 157.791,115.723 157.698 C 116.206 157.604,115.811 157.528,114.844 157.528 C 113.877 157.528,113.481 157.604,113.965 157.698 M105.603 215.820 C 105.604 217.539,105.673 218.194,105.755 217.275 C 105.838 216.356,105.837 214.950,105.753 214.150 C 105.669 213.350,105.601 214.102,105.603 215.820 M306.009 236.914 C 306.009 239.492,306.072 240.496,306.149 239.145 C 306.225 237.794,306.225 235.684,306.148 234.457 C 306.070 233.230,306.008 234.336,306.009 236.914 M105.559 248.438 C 105.559 249.189,105.640 249.497,105.738 249.121 C 105.836 248.745,105.836 248.130,105.738 247.754 C 105.640 247.378,105.559 247.686,105.559 248.438 M202.465 256.836 C 202.467 258.125,202.540 258.605,202.627 257.903 C 202.714 257.201,202.712 256.146,202.623 255.559 C 202.534 254.972,202.463 255.547,202.465 256.836 M202.461 278.125 C 202.461 279.307,202.534 279.790,202.624 279.199 C 202.713 278.608,202.713 277.642,202.624 277.051 C 202.534 276.460,202.461 276.943,202.461 278.125 M101.862 282.705 C 102.565 282.792,103.619 282.790,104.206 282.701 C 104.793 282.612,104.219 282.541,102.930 282.543 C 101.641 282.545,101.160 282.618,101.862 282.705 " stroke="none" fill="#7c7c76" fill-rule="evenodd"></path></g></svg>